<svg width="950" height="483" viewBox="0 0 950 483" fill="none" xmlns="http://www.w3.org/2000/svg">
<g clip-path="url(#clip0_1_2)">
<rect x="1" y="14" width="179" height="263" rx="19" fill="#D9D9D9" stroke="#669999" stroke-width="2"/>
<rect x="316" y="14" width="179" height="263" rx="19" fill="#D9D9D9" stroke="#669999" stroke-width="2"/>
<rect x="620.151" y="28.1948" width="179" height="263" rx="19" transform="rotate(-9.5 620.151 28.1948)" fill="#D9D9D9" stroke="#669999" stroke-width="2"/>
<path d="M268 147.223H207C206.735 147.223 206.48 147.118 206.293 146.93C206.105 146.743 206 146.488 206 146.223C206 145.958 206.105 145.703 206.293 145.516C206.48 145.328 206.735 145.223 207 145.223H268C268.265 145.223 268.52 145.328 268.707 145.516C268.895 145.703 269 145.958 269 146.223C269 146.488 268.895 146.743 268.707 146.93C268.52 147.118 268.265 147.223 268 147.223Z" fill="#669999"/>
<path d="M255.001 174.649C254.791 174.649 254.587 174.583 254.417 174.461C254.247 174.34 254.12 174.167 254.053 173.969C253.986 173.771 253.983 173.556 254.044 173.356C254.105 173.156 254.228 172.98 254.394 172.853L286.218 148.609C286.585 148.329 286.883 147.968 287.088 147.555C287.293 147.141 287.399 146.685 287.399 146.223C287.399 145.761 287.293 145.306 287.088 144.892C286.883 144.478 286.585 144.117 286.218 143.837L254.394 119.593C254.183 119.432 254.045 119.194 254.01 118.931C253.975 118.669 254.045 118.403 254.206 118.192C254.366 117.981 254.604 117.843 254.866 117.807C255.129 117.772 255.395 117.842 255.606 118.002L287.429 142.246C288.042 142.713 288.538 143.314 288.88 144.004C289.222 144.694 289.399 145.453 289.399 146.223C289.399 146.993 289.222 147.752 288.88 148.442C288.538 149.132 288.042 149.734 287.429 150.2L255.606 174.444C255.432 174.577 255.219 174.649 255.001 174.649Z" fill="#669999"/>
<path d="M582 147.223H521C520.735 147.223 520.48 147.118 520.293 146.93C520.105 146.743 520 146.488 520 146.223C520 145.958 520.105 145.703 520.293 145.516C520.48 145.328 520.735 145.223 521 145.223H582C582.265 145.223 582.52 145.328 582.707 145.516C582.895 145.703 583 145.958 583 146.223C583 146.488 582.895 146.743 582.707 146.93C582.52 147.118 582.265 147.223 582 147.223Z" fill="#669999"/>
<path d="M569.001 174.649C568.791 174.649 568.587 174.583 568.417 174.461C568.247 174.34 568.12 174.167 568.053 173.969C567.986 173.771 567.983 173.556 568.044 173.356C568.105 173.156 568.228 172.98 568.394 172.853L600.217 148.609C600.585 148.329 600.883 147.968 601.088 147.555C601.293 147.141 601.399 146.685 601.399 146.223C601.399 145.761 601.293 145.306 601.088 144.892C600.883 144.478 600.585 144.117 600.217 143.837L568.394 119.593C568.183 119.432 568.045 119.194 568.01 118.931C567.975 118.669 568.045 118.403 568.206 118.192C568.366 117.981 568.604 117.843 568.866 117.807C569.129 117.772 569.395 117.842 569.606 118.002L601.429 142.246C602.042 142.713 602.538 143.314 602.88 144.004C603.222 144.694 603.399 145.453 603.399 146.223C603.399 146.993 603.222 147.752 602.88 148.442C602.538 149.132 602.042 149.734 601.429 150.2L569.606 174.444C569.432 174.577 569.219 174.649 569.001 174.649Z" fill="#669999"/>
<rect x="362" y="135" width="87" height="23" rx="11.5" fill="white"/>
<rect x="362" y="173" width="87" height="23" rx="11.5" fill="white"/>
<rect x="362" y="211" width="87" height="23" rx="11.5" fill="white"/>
<rect x="765.672" y="90.6506" width="87" height="23" rx="11.5" transform="rotate(170 765.672 90.6506)" fill="white"/>
<rect x="683" y="128.107" width="87" height="23" rx="11.5" transform="rotate(-10 683 128.107)" fill="white"/>
<rect x="780.672" y="180.651" width="87" height="23" rx="11.5" transform="rotate(170 780.672 180.651)" fill="white"/>
<rect x="698" y="219.107" width="87" height="23" rx="11.5" transform="rotate(-10 698 219.107)" fill="white"/>
<path d="M423.5 106.723H388.5C386.246 106.721 384.086 105.824 382.492 104.231C380.899 102.637 380.003 100.477 380 98.223V64.223C380.003 61.9695 380.899 59.8089 382.492 58.2154C384.086 56.6219 386.246 55.7255 388.5 55.723H423.5C425.754 55.7255 427.914 56.6219 429.508 58.2154C431.101 59.8089 431.998 61.9695 432 64.223V98.223C431.998 100.477 431.101 102.637 429.508 104.231C427.914 105.824 425.754 106.721 423.5 106.723Z" fill="#FF3300"/>
<path d="M430 106.223C429.869 106.223 429.739 106.197 429.617 106.147C429.496 106.097 429.386 106.023 429.293 105.93L381.293 57.9301C381.2 57.8372 381.127 57.727 381.076 57.6057C381.026 57.4844 381 57.3543 381 57.223C381 57.0917 381.026 56.9617 381.076 56.8404C381.127 56.7191 381.2 56.6088 381.293 56.516C381.386 56.4231 381.496 56.3495 381.617 56.2993C381.739 56.249 381.869 56.2231 382 56.2231C382.131 56.2231 382.261 56.249 382.383 56.2993C382.504 56.3495 382.614 56.4232 382.707 56.516L430.707 104.516C430.847 104.656 430.942 104.834 430.981 105.028C431.019 105.222 430.999 105.423 430.924 105.606C430.848 105.788 430.72 105.945 430.556 106.054C430.391 106.164 430.198 106.223 430 106.223Z" fill="white"/>
<path d="M382 106.223C381.802 106.223 381.609 106.164 381.445 106.054C381.28 105.945 381.152 105.788 381.076 105.606C381.001 105.423 380.981 105.222 381.019 105.028C381.058 104.834 381.153 104.656 381.293 104.516L429.293 56.5161C429.386 56.4232 429.496 56.3496 429.617 56.2993C429.739 56.2491 429.869 56.2232 430 56.2232C430.131 56.2232 430.261 56.2491 430.383 56.2993C430.504 56.3496 430.614 56.4232 430.707 56.5161C430.8 56.6089 430.874 56.7191 430.924 56.8405C430.974 56.9618 431 57.0918 431 57.2231C431 57.3544 430.974 57.4844 430.924 57.6057C430.874 57.7271 430.8 57.8373 430.707 57.9301L382.707 105.93C382.614 106.023 382.504 106.097 382.383 106.147C382.261 106.197 382.131 106.223 382 106.223Z" fill="white"/>
<path d="M438 159.223H373C369.685 159.223 366.505 157.906 364.161 155.562C361.817 153.218 360.5 150.038 360.5 146.723C360.5 143.408 361.817 140.228 364.161 137.884C366.505 135.54 369.685 134.223 373 134.223H438C441.315 134.223 444.495 135.54 446.839 137.884C449.183 140.228 450.5 143.408 450.5 146.723C450.5 150.038 449.183 153.218 446.839 155.562C444.495 157.906 441.315 159.223 438 159.223ZM373 136.223C370.215 136.223 367.545 137.329 365.575 139.298C363.606 141.268 362.5 143.938 362.5 146.723C362.5 149.508 363.606 152.179 365.575 154.148C367.545 156.117 370.215 157.223 373 157.223H438C440.785 157.223 443.456 156.117 445.425 154.148C447.394 152.179 448.5 149.508 448.5 146.723C448.5 143.938 447.394 141.268 445.425 139.298C443.456 137.329 440.785 136.223 438 136.223H373Z" fill="#669999"/>
<path d="M438 197.223H373C369.685 197.223 366.505 195.906 364.161 193.562C361.817 191.218 360.5 188.038 360.5 184.723C360.5 181.408 361.817 178.228 364.161 175.884C366.505 173.54 369.685 172.223 373 172.223H438C441.315 172.223 444.495 173.54 446.839 175.884C449.183 178.228 450.5 181.408 450.5 184.723C450.5 188.038 449.183 191.218 446.839 193.562C444.495 195.906 441.315 197.223 438 197.223ZM373 174.223C370.215 174.223 367.545 175.329 365.575 177.298C363.606 179.268 362.5 181.938 362.5 184.723C362.5 187.508 363.606 190.179 365.575 192.148C367.545 194.117 370.215 195.223 373 195.223H438C440.785 195.223 443.456 194.117 445.425 192.148C447.394 190.179 448.5 187.508 448.5 184.723C448.5 181.938 447.394 179.268 445.425 177.298C443.456 175.329 440.785 174.223 438 174.223H373Z" fill="#669999"/>
<path d="M438 235.223H373C369.685 235.223 366.505 233.906 364.161 231.562C361.817 229.218 360.5 226.038 360.5 222.723C360.5 219.408 361.817 216.228 364.161 213.884C366.505 211.54 369.685 210.223 373 210.223H438C441.315 210.223 444.495 211.54 446.839 213.884C449.183 216.228 450.5 219.408 450.5 222.723C450.5 226.038 449.183 229.218 446.839 231.562C444.495 233.906 441.315 235.223 438 235.223ZM373 212.223C370.215 212.223 367.545 213.329 365.575 215.298C363.606 217.268 362.5 219.938 362.5 222.723C362.5 225.508 363.606 228.179 365.575 230.148C367.545 232.117 370.215 233.223 373 233.223H438C440.785 233.223 443.456 232.117 445.425 230.148C447.394 228.179 448.5 225.508 448.5 222.723C448.5 219.938 447.394 217.268 445.425 215.298C443.456 213.329 440.785 212.223 438 212.223H373Z" fill="#669999"/>
<path d="M755.286 93.6742L691.163 104.316C687.893 104.859 684.54 104.081 681.844 102.152C679.148 100.223 677.328 97.3022 676.785 94.0317C676.242 90.7612 677.021 87.4091 678.95 84.7127C680.878 82.0163 683.799 80.1966 687.07 79.6538L751.193 69.0116C754.462 68.471 757.813 69.2508 760.507 71.1796C763.202 73.1085 765.021 76.0284 765.563 79.2976C766.106 82.5667 765.328 85.9176 763.401 88.6135C761.474 91.3094 758.555 93.1297 755.286 93.6742ZM687.397 81.6268C684.651 82.0833 682.198 83.6121 680.578 85.8769C678.959 88.1417 678.305 90.9571 678.761 93.7038C679.216 96.4506 680.745 98.9039 683.009 100.524C685.273 102.144 688.089 102.799 690.836 102.343L754.958 91.7012C757.705 91.2447 760.158 89.7159 761.778 87.4511C763.397 85.1863 764.051 82.3709 763.595 79.6242C763.139 76.8774 761.611 74.4241 759.347 72.804C757.082 71.1838 754.267 70.5294 751.52 70.9846L687.397 81.6268Z" fill="#669999"/>
<path d="M762.817 139.053L698.694 149.696C697.075 149.966 695.417 149.914 693.818 149.543C692.218 149.172 690.707 148.49 689.371 147.535C688.035 146.58 686.9 145.371 686.032 143.977C685.163 142.583 684.578 141.032 684.309 139.412C684.04 137.792 684.093 136.135 684.465 134.536C684.837 132.936 685.52 131.425 686.476 130.09C687.432 128.755 688.641 127.621 690.035 126.753C691.43 125.885 692.981 125.301 694.601 125.033L758.724 114.391C761.995 113.848 765.347 114.627 768.043 116.555C770.74 118.484 772.559 121.405 773.102 124.676C773.645 127.946 772.866 131.298 770.937 133.995C769.009 136.691 766.088 138.511 762.817 139.053ZM694.929 127.006C692.183 127.463 689.73 128.992 688.111 131.257C686.492 133.521 685.838 136.336 686.294 139.083C686.75 141.829 688.278 144.282 690.542 145.902C692.806 147.522 695.62 148.177 698.367 147.723L762.49 137.08C765.236 136.623 767.688 135.094 769.307 132.83C770.927 130.565 771.58 127.75 771.124 125.004C770.668 122.257 769.141 119.805 766.877 118.184C764.613 116.564 761.798 115.909 759.052 116.364L694.929 127.006Z" fill="#669999"/>
<path d="M770.349 184.433L706.226 195.075C704.606 195.345 702.949 195.293 701.349 194.922C699.749 194.551 698.238 193.869 696.902 192.914C695.566 191.959 694.432 190.75 693.563 189.356C692.695 187.963 692.109 186.411 691.84 184.791C691.572 183.171 691.625 181.514 691.996 179.915C692.368 178.315 693.051 176.805 694.007 175.469C694.963 174.134 696.173 173 697.567 172.132C698.961 171.265 700.512 170.68 702.133 170.412L766.255 159.77C769.525 159.23 772.875 160.009 775.57 161.938C778.265 163.867 780.083 166.787 780.626 170.056C781.169 173.325 780.391 176.676 778.464 179.372C776.536 182.068 773.618 183.888 770.349 184.433ZM702.46 172.385C701.1 172.611 699.797 173.102 698.626 173.831C697.456 174.56 696.44 175.513 695.637 176.634C694.835 177.756 694.261 179.024 693.949 180.368C693.637 181.711 693.593 183.103 693.818 184.463C694.044 185.824 694.536 187.126 695.265 188.297C695.994 189.467 696.947 190.483 698.069 191.285C699.191 192.087 700.46 192.66 701.803 192.972C703.146 193.284 704.538 193.328 705.898 193.102L770.021 182.46C771.382 182.235 772.685 181.743 773.856 181.014C775.027 180.286 776.043 179.333 776.845 178.211C777.648 177.09 778.222 175.821 778.534 174.477C778.847 173.134 778.891 171.742 778.665 170.382C778.439 169.021 777.948 167.718 777.218 166.547C776.489 165.377 775.536 164.361 774.414 163.559C773.292 162.757 772.023 162.184 770.679 161.872C769.335 161.56 767.943 161.517 766.583 161.743L702.46 172.385Z" fill="#669999"/>
<rect x="46" y="196" width="88" height="23" rx="11.5" fill="white"/>
<path d="M777.88 229.812L713.757 240.454C712.138 240.723 710.481 240.67 708.882 240.299C707.284 239.927 705.773 239.245 704.438 238.29C703.103 237.335 701.969 236.126 701.101 234.733C700.233 233.339 699.648 231.789 699.379 230.169C699.111 228.55 699.163 226.894 699.535 225.295C699.906 223.696 700.589 222.186 701.544 220.85C702.499 219.515 703.708 218.381 705.101 217.513C706.494 216.645 708.045 216.06 709.664 215.792L773.787 205.149C777.057 204.609 780.407 205.389 783.102 207.317C785.796 209.246 787.615 212.166 788.157 215.435C788.7 218.705 787.922 222.055 785.995 224.751C784.068 227.447 781.149 229.267 777.88 229.812ZM709.992 217.765C708.631 217.99 707.329 218.482 706.158 219.211C704.988 219.94 703.973 220.893 703.171 222.014C701.551 224.279 700.896 227.095 701.352 229.842C701.808 232.589 703.337 235.043 705.602 236.663C707.867 238.283 710.683 238.937 713.43 238.481L777.553 227.839C780.299 227.382 782.752 225.854 784.372 223.589C785.992 221.324 786.645 218.509 786.189 215.762C785.734 213.015 784.205 210.562 781.941 208.942C779.677 207.322 776.861 206.667 774.114 207.122L709.992 217.765Z" fill="#669999"/>
<path d="M801.592 27.5946L625.007 56.9016C624.878 56.9236 624.745 56.9197 624.616 56.8903C624.488 56.8608 624.367 56.8064 624.26 56.73C624.153 56.6536 624.062 56.5568 623.992 56.4451C623.922 56.3335 623.875 56.2092 623.854 56.0794C623.832 55.9495 623.836 55.8167 623.866 55.6885C623.896 55.5603 623.951 55.4394 624.028 55.3324C624.105 55.2255 624.202 55.1348 624.314 55.0655C624.425 54.9962 624.55 54.9497 624.68 54.9286L801.264 25.6216C801.394 25.5996 801.527 25.6034 801.655 25.6328C801.783 25.6623 801.905 25.7168 802.012 25.7932C802.119 25.8696 802.21 25.9663 802.28 26.078C802.349 26.1896 802.396 26.3139 802.418 26.4438C802.44 26.5736 802.435 26.7064 802.405 26.8346C802.375 26.9628 802.321 27.0838 802.244 27.1907C802.167 27.2976 802.07 27.3883 801.958 27.4576C801.846 27.5269 801.722 27.5735 801.592 27.5946Z" fill="#669999"/>
<path d="M644.19 45.1138C648.056 45.1138 651.19 41.9798 651.19 38.1138C651.19 34.2478 648.056 31.1138 644.19 31.1138C640.324 31.1138 637.19 34.2478 637.19 38.1138C637.19 41.9798 640.324 45.1138 644.19 45.1138Z" fill="#FF3300"/>
<path d="M783.619 10.9186L763.889 14.1931C763.628 14.2355 763.36 14.1727 763.145 14.0184C762.93 13.8641 762.785 13.6308 762.742 13.3698C762.699 13.1087 762.761 12.8412 762.914 12.6257C763.068 12.4102 763.301 12.2644 763.561 12.2201L783.292 8.9456C783.553 8.9031 783.82 8.9659 784.035 9.12022C784.25 9.27454 784.395 9.50779 784.439 9.76888C784.482 10.03 784.42 10.2976 784.266 10.5131C784.113 10.7286 783.88 10.8744 783.619 10.9186Z" fill="#669999"/>
<path d="M784.601 16.8376L764.871 20.1122C764.61 20.1546 764.343 20.0918 764.128 19.9374C763.913 19.7831 763.768 19.5499 763.724 19.2888C763.681 19.0278 763.743 18.7602 763.897 18.5447C764.05 18.3292 764.283 18.1834 764.544 18.1392L784.274 14.8646C784.535 14.8222 784.802 14.885 785.017 15.0394C785.232 15.1937 785.377 15.4269 785.421 15.688C785.464 15.949 785.402 16.2166 785.249 16.4321C785.095 16.6476 784.862 16.7934 784.601 16.8376Z" fill="#669999"/>
<path d="M785.584 22.7567L765.854 26.0312C765.724 26.0532 765.591 26.0493 765.463 26.0198C765.335 25.9904 765.213 25.9359 765.106 25.8595C764.999 25.7831 764.908 25.6863 764.838 25.5747C764.769 25.4631 764.722 25.3388 764.7 25.2089C764.679 25.0791 764.683 24.9463 764.713 24.8182C764.743 24.69 764.798 24.569 764.874 24.4621C764.951 24.3552 765.048 24.2645 765.16 24.1952C765.272 24.1259 765.396 24.0793 765.526 24.0582L785.256 20.7837C785.386 20.7617 785.519 20.7655 785.647 20.795C785.775 20.8244 785.897 20.8789 786.004 20.9553C786.111 21.0317 786.202 21.1284 786.272 21.2401C786.341 21.3517 786.388 21.476 786.41 21.6059C786.431 21.7357 786.427 21.8685 786.397 21.9967C786.367 22.1249 786.312 22.2459 786.236 22.3528C786.159 22.4597 786.062 22.5504 785.95 22.6197C785.838 22.689 785.714 22.7356 785.584 22.7567Z" fill="#669999"/>
<path d="M128 163.723H53C50.7464 163.721 48.5859 162.824 46.9924 161.231C45.3989 159.637 44.5025 157.477 44.5 155.223V79.223C44.5025 76.9695 45.3989 74.8089 46.9924 73.2154C48.5859 71.6219 50.7464 70.7255 53 70.723H128C130.254 70.7255 132.414 71.6219 134.008 73.2154C135.601 74.8089 136.497 76.9695 136.5 79.223V155.223C136.497 157.477 135.601 159.637 134.008 161.231C132.414 162.824 130.254 163.721 128 163.723Z" fill="#FF3300"/>
<path d="M122.5 220.223H57.5C54.1848 220.223 51.0054 218.906 48.6612 216.562C46.317 214.218 45 211.038 45 207.723C45 204.408 46.317 201.228 48.6612 198.884C51.0054 196.54 54.1848 195.223 57.5 195.223H122.5C125.815 195.223 128.995 196.54 131.339 198.884C133.683 201.228 135 204.408 135 207.723C135 211.038 133.683 214.218 131.339 216.562C128.995 218.906 125.815 220.223 122.5 220.223ZM57.5 197.223C54.7152 197.223 52.0445 198.329 50.0754 200.298C48.1062 202.268 47 204.938 47 207.723C47 210.508 48.1062 213.179 50.0754 215.148C52.0445 217.117 54.7152 218.223 57.5 218.223H122.5C125.285 218.223 127.955 217.117 129.925 215.148C131.894 213.179 133 210.508 133 207.723C133 204.938 131.894 202.268 129.925 200.298C127.955 198.329 125.285 197.223 122.5 197.223H57.5Z" fill="#669999"/>
<path d="M134.5 162.223C134.369 162.223 134.239 162.197 134.117 162.147C133.996 162.097 133.886 162.023 133.793 161.93L45.7928 73.9301C45.699 73.8374 45.6244 73.7271 45.5734 73.6056C45.5224 73.484 45.4959 73.3535 45.4955 73.2217C45.4951 73.0898 45.5208 72.9592 45.571 72.8373C45.6213 72.7154 45.6952 72.6046 45.7884 72.5114C45.8817 72.4182 45.9925 72.3443 46.1144 72.294C46.2363 72.2438 46.3669 72.2181 46.4988 72.2185C46.6306 72.219 46.7611 72.2455 46.8826 72.2965C47.0042 72.3476 47.1145 72.4222 47.2071 72.516L135.207 160.516C135.347 160.656 135.442 160.834 135.481 161.028C135.519 161.222 135.499 161.423 135.424 161.606C135.348 161.788 135.22 161.945 135.056 162.054C134.891 162.164 134.698 162.223 134.5 162.223Z" fill="white"/>
<path d="M46.5 162.223C46.3023 162.223 46.1089 162.164 45.9445 162.055C45.7801 161.945 45.6519 161.789 45.5762 161.606C45.5005 161.423 45.4807 161.222 45.5193 161.028C45.5578 160.834 45.653 160.656 45.7928 160.516L133.793 72.5161C133.885 72.4223 133.996 72.3477 134.117 72.2966C134.239 72.2456 134.369 72.219 134.501 72.2186C134.633 72.2182 134.764 72.2438 134.886 72.2941C135.008 72.3444 135.118 72.4182 135.212 72.5114C135.305 72.6047 135.379 72.7154 135.429 72.8373C135.479 72.9592 135.505 73.0898 135.504 73.2217C135.504 73.3535 135.478 73.484 135.427 73.6056C135.376 73.7272 135.301 73.8375 135.207 73.9301L47.2072 161.93C47.1144 162.023 47.0042 162.097 46.8828 162.147C46.7615 162.197 46.6314 162.223 46.5 162.223Z" fill="white"/>
<path d="M819.054 264.413C819.517 262.912 819.645 261.328 819.43 259.772C819.215 258.217 818.661 256.727 817.807 255.409C816.954 254.09 815.822 252.975 814.491 252.141C813.16 251.308 811.663 250.776 810.104 250.584L758.771 190.6L746.798 203.171L797.929 260.685C797.78 263.325 798.604 265.928 800.245 268.001C801.887 270.073 804.232 271.472 806.836 271.932C809.44 272.391 812.122 271.88 814.373 270.494C816.625 269.108 818.291 266.944 819.054 264.413Z" fill="#CD9E81"/>
<path d="M773.641 203.237L755.291 216.647C754.769 217.029 754.171 217.293 753.538 217.423C752.904 217.553 752.25 217.544 751.62 217.398C750.99 217.252 750.399 216.972 749.887 216.577C749.375 216.182 748.954 215.681 748.653 215.109L738.109 195.053C736.172 192.371 735.377 189.03 735.9 185.763C736.422 182.496 738.219 179.569 740.896 177.625C743.573 175.68 746.911 174.877 750.18 175.39C753.448 175.904 756.38 177.692 758.332 180.364L774.191 196.445C774.644 196.906 774.994 197.458 775.215 198.066C775.436 198.674 775.523 199.322 775.471 199.967C775.419 200.611 775.228 201.237 774.912 201.801C774.597 202.366 774.163 202.855 773.641 203.237Z" fill="#FF3300"/>
<path d="M738.233 168.162C751.798 168.162 762.794 157.166 762.794 143.601C762.794 130.036 751.798 119.04 738.233 119.04C724.668 119.04 713.672 130.036 713.672 143.601C713.672 157.166 724.668 168.162 738.233 168.162Z" fill="#CD9E81"/>
<path d="M748.902 249.409C748.647 249.409 748.393 249.388 748.141 249.346L705.046 242.092C704.008 241.919 703.064 241.387 702.378 240.589C701.692 239.791 701.308 238.777 701.294 237.725C701.162 227.865 701.9 202.977 711.559 184.849C714.58 179.182 719.556 174.806 725.562 172.534C731.568 170.262 738.195 170.249 744.209 172.497C750.224 174.744 755.218 179.101 758.262 184.755C761.305 190.409 762.192 196.976 760.756 203.234C757.523 217.159 755.052 231.25 753.354 245.444C753.224 246.535 752.699 247.54 751.879 248.271C751.059 249.001 750 249.406 748.902 249.409Z" fill="#2B5F80"/>
<path d="M658.548 168.538C658.671 169.078 658.751 169.626 658.788 170.178L701.745 194.96L712.186 188.949L723.318 203.521L705.867 215.959C704.457 216.964 702.76 217.484 701.029 217.442C699.298 217.4 697.628 216.797 696.269 215.725L651.973 180.779C649.973 181.519 647.796 181.633 645.731 181.106C643.666 180.578 641.81 179.434 640.41 177.827C639.011 176.219 638.134 174.223 637.897 172.104C637.659 169.986 638.072 167.846 639.081 165.968C640.09 164.09 641.646 162.564 643.544 161.592C645.441 160.62 647.589 160.249 649.703 160.528C651.816 160.807 653.794 161.723 655.374 163.154C656.954 164.585 658.061 166.463 658.548 168.538Z" fill="#CD9E81"/>
<path d="M702.335 192.483C702.465 191.849 702.729 191.251 703.111 190.729C703.492 190.207 703.982 189.774 704.546 189.458L724.26 178.435C726.879 176.414 730.192 175.514 733.474 175.932C736.756 176.35 739.738 178.052 741.767 180.666C743.796 183.279 744.705 186.59 744.296 189.873C743.888 193.156 742.194 196.143 739.586 198.179L723.869 214.501C723.42 214.966 722.877 215.33 722.275 215.567C721.673 215.803 721.027 215.908 720.382 215.872C719.736 215.837 719.105 215.663 718.533 215.362C717.961 215.061 717.46 214.64 717.065 214.128L703.181 196.134C702.786 195.622 702.506 195.031 702.36 194.401C702.214 193.771 702.205 193.117 702.335 192.483Z" fill="#FF3300"/>
<path d="M681.537 469.689H669.277L666.391 422.554L681.539 422.401L681.537 469.689Z" fill="#CD9E81"/>
<path d="M684.663 471.573L645.133 471.572V471.072C645.133 469.051 645.531 467.05 646.304 465.184C647.077 463.317 648.211 461.621 649.639 460.192C651.068 458.763 652.764 457.63 654.631 456.857C656.498 456.083 658.499 455.685 660.519 455.685L684.664 455.687L684.663 471.573Z" fill="#555555"/>
<path d="M798.537 469.689H786.277L780.445 422.401H798.539L798.537 469.689Z" fill="#CD9E81"/>
<path d="M801.663 471.573L762.133 471.572V471.072C762.133 469.051 762.531 467.05 763.304 465.184C764.077 463.317 765.211 461.621 766.639 460.192C768.068 458.763 769.764 457.63 771.631 456.857C773.498 456.083 775.499 455.685 777.519 455.685L801.664 455.687L801.663 471.573Z" fill="#555555"/>
<path d="M784.599 445.167C783.666 445.165 782.756 444.874 781.995 444.335C781.233 443.795 780.657 443.033 780.346 442.153L741.276 330.526C741.127 330.099 740.863 329.72 740.515 329.43C740.167 329.141 739.746 328.951 739.298 328.882C738.851 328.813 738.393 328.866 737.973 329.037C737.553 329.208 737.188 329.49 736.916 329.853L698.806 380.666C698.509 381.063 698.3 381.518 698.191 382.001L686.047 436.181C685.829 437.144 685.302 438.008 684.546 438.643C683.79 439.277 682.846 439.645 681.86 439.692L667.315 440.353C666.688 440.385 666.061 440.283 665.476 440.055C664.891 439.827 664.36 439.478 663.92 439.03C663.478 438.585 663.133 438.053 662.909 437.467C662.685 436.881 662.585 436.255 662.617 435.628L665.153 386.176C665.953 370.178 670.075 354.522 677.256 340.204C693.221 308.369 702.458 273.588 704.391 238.026L704.422 237.473L749.174 244.593L755.892 253.895C758.89 258.091 762.137 262.104 765.617 265.91C774.173 275.187 776.741 287.593 777.389 296.366C778.226 307.149 779.753 317.867 781.959 328.455L804.153 437.517C804.32 438.136 804.352 438.783 804.247 439.416C804.143 440.049 803.905 440.652 803.548 441.185C803.192 441.718 802.726 442.168 802.181 442.507C801.636 442.845 801.026 443.063 800.39 443.146L785.175 445.13C784.984 445.155 784.791 445.167 784.599 445.167Z" fill="#2B5F80"/>
<path d="M765.391 126.554C763.44 120.64 761.999 114.569 761.086 108.408C760.799 104.822 761.717 100.963 764.329 98.4883C769.217 93.8572 777.522 96.0629 782.634 100.446C790.022 106.78 793.706 116.515 795.099 126.146C796.491 135.777 795.879 145.571 796.214 155.297C796.549 165.023 797.94 175.023 802.898 183.396C807.857 191.77 817.058 198.197 826.763 197.485C830.681 197.273 834.4 195.697 837.277 193.029C838.689 191.686 839.758 190.024 840.395 188.182C841.032 186.34 841.219 184.372 840.938 182.443C845.899 191.326 843.384 203.364 835.985 210.347C828.586 217.33 817.205 219.303 807.478 216.322C797.751 213.341 789.745 205.865 784.963 196.886C780.181 187.906 778.429 177.532 778.683 167.362C778.878 159.552 780.206 151.678 778.886 143.977C777.566 136.277 772.747 128.458 765.148 126.645L765.391 126.554Z" fill="#3B264F"/>
<path d="M731.264 136.678C729.968 141.006 725.013 143.675 720.554 142.943C716.096 142.211 712.43 138.539 711.076 134.229C709.851 129.827 710.352 125.124 712.477 121.079C713.648 118.654 715.286 116.484 717.297 114.693C719.307 112.903 721.651 111.526 724.195 110.642C726.753 109.794 729.476 109.574 732.137 109.999C734.798 110.424 737.317 111.482 739.484 113.085C739.714 112.112 740.2 111.219 740.891 110.497C741.581 109.775 742.452 109.25 743.413 108.976C745.348 108.454 747.391 108.484 749.31 109.063C754.839 110.638 759.63 114.124 762.832 118.9C765.992 123.661 768.083 129.051 768.961 134.698C770.469 143.166 769.913 152.42 765.156 159.588C760.4 166.755 750.67 170.987 742.776 167.57C742.283 165.054 743.449 162.52 744.799 160.339C746.148 158.159 747.746 156.035 748.265 153.523C748.783 151.012 747.789 147.941 745.36 147.119C743.288 146.419 741.079 147.554 738.895 147.691C737.656 147.769 736.417 147.519 735.304 146.967C734.191 146.415 733.243 145.58 732.555 144.546C731.866 143.512 731.462 142.315 731.382 141.076C731.302 139.836 731.55 138.597 732.1 137.483L731.264 136.678Z" fill="#3B264F"/>
</g>
<defs>
<clipPath id="clip0_1_2">
<rect width="949.651" height="482.323" fill="white"/>
</clipPath>
</defs>
</svg>
