<svg xmlns="http://www.w3.org/2000/svg" xmlns:xlink="http://www.w3.org/1999/xlink" viewBox="0 0 300 300" style="enable-background:new 0 0 300 300" xml:space="preserve"><style>.st1{fill:#fff}.st2{fill:#f80}.st3{fill:#c4c4c4}.st6{fill:#333}.st7{opacity:.1;enable-background:new}.st8{fill:#a17c65}.st9{fill:#cce4f1}.st12{fill:#ddd}.st14{display:none}.st17{fill:#f7c4a7}.st19{fill:#253255}.st21{fill:#006369}.st22{fill:#9d6e38}.st23,.st24,.st25{display:inline;fill:#fff}.st24,.st25{fill:#ddd}.st25{fill:#c68966}.st26{fill:#bbb}.st26,.st29,.st30{display:inline}.st29{fill:#171717}.st30{opacity:.1;enable-background:new}.st31,.st32,.st33{display:inline;fill:#946196}.st32,.st33{fill:#617ea0}.st33{fill:#6b88d5}.st34,.st35,.st36{display:inline;fill:#f80}.st35,.st36{fill:#c4c4c4}.st36{fill:#f7c4a7}.st37,.st40,.st44{display:inline;fill:#2f2e41}.st40,.st44{fill:#777778}.st44{fill:#333}</style><g id="Ebene_1"><circle class="st1" cx="150.5" cy="125.5" r="16.3"/><path class="st2" d="M168.7 125.9c0 10.1-8.2 18.3-18.3 18.3s-18.3-8.2-18.3-18.3 8.2-18.3 18.3-18.3 18.3 8.2 18.3 18.3zm-20.4 9.7 13.6-13.6c.5-.5.5-1.2 0-1.7l-1.7-1.7c-.5-.5-1.2-.5-1.7 0l-11 11-5.2-5.2c-.5-.5-1.2-.5-1.7 0l-1.7 1.7c-.5.5-.5 1.2 0 1.7l7.7 7.7c.5.5 1.3.5 1.7.1z"/><path class="st3" d="M100.6 287.6c-27.7 0-50.2-2.5-50.2-5.6 0-3.1 22.5-5.6 50.2-5.6 27.7 0 50.2 2.5 50.2 5.6 0 3.1-22.5 5.6-50.2 5.6z"/><linearGradient id="SVGID_1_" gradientUnits="userSpaceOnUse" x1="235.802" y1="-252.856" x2="235.802" y2="-28.335" gradientTransform="matrix(1 0 0 -1 -147.66 31.04)"><stop offset="0" style="stop-color:gray;stop-opacity:.25"/><stop offset=".54" style="stop-color:gray;stop-opacity:.12"/><stop offset="1" style="stop-color:gray;stop-opacity:.1"/></linearGradient><path d="M48.8 117.5v6.9s2.2 21.7 9.1 24.1c.7.2 1.4.4 2.1.5-.3 2-.5 3.8-.7 5.3-.8 6.2-3 15.9-3 15.9l.4.1v.4c-.7 5.7.1 15.1.1 15.1s1.1 6.9 2.6 14c.9 4.2.9 8.6 0 12.9.5 5 0 10-1.4 14.8-.1.3-.2.7-.3 1-2.5 8.8.9 22.1 2.5 28.1 1.1 4.5 1.8 9 2.2 13.6-.2.2-.3.5-.3.8-.1.3 0 .6 0 .9.7 2.9-1.8 7-1.8 7-.2.2-.3.5-.5.8-.2.5-.3 1.1-.2 1.6.1.5.3 1.1.7 1.5 1.6 2.1 11.1 1.2 12.7.5 1-.4.9-2.2.6-4.1-.2-1.2-.4-2.4-.5-3.3-.2-1.6.2-4.2.5-5.7h.1l-.1-.3c.1-.5.2-.9.2-.9l-.3.3-2.5-12.2c1.9-7.7 0-28.2 0-28.2s4.4-7.9 4.8-20.1c.4-11.9 3.4-15.8 3.5-15.9 6.2 3.2 14 37 14 37-.6 8.2.1 20.8 2.7 27.6 1.6 4.3 2.2 8.9 1.9 13.5.2.2.5.4.8.5-.2 1.5-.5 3.7-1.2 4.6l-.3.6c-.1.2-.1.4 0 .7.1.6.4 1.2.8 1.7.5.5 1 .7 1.7.8 3.5.5 11.9 1.8 14 2.8 2.7 1.2 13.4.4 13.9-.9.1-.3.1-.5.1-.8 0-.3-.1-.5-.2-.7-.4-.8-1-1.4-1.7-1.8-.2-.1-.5-.2-.8-.3-2-.7-5.8-2.1-6.8-3.5 0 0-4.7-4.1-6.1-6.3-.3-.4-.6-.8-1.1-1.1s-.9-.4-1.4-.4h-.1c-.3-6.4-1.5-35.8-2.4-37-1-1.4 0-9.3 0-9.3l-1.7-12.9s.3-21.8-2.1-25.6c-2.1-3.3-2.6-9-2.7-10.5v-.4c.7-.3.9-.8 0-1.5-3.2-2.5-4-23.1-4.1-25.5v-.2c.2.1 2.4.5 7.8-.6 5.8-1.3 6.4-14 3.6-19.5-1.8-3.5-2-6.1-1.9-7.7.1-1.7 0-3.4-.4-5.1-2.5-10.1-9.4-9.3-9.4-9.3L84.7 97c-.6-.5-1-1.2-1.4-1.9-.3-.7-.4-1.5-.4-2.3v-.4c2.6-.8 4.9-2.4 6.5-4.6 1.6-2.2 2.5-4.9 2.5-7.6 0-2.8-.9-5.6-2.7-7.8l-.1-.1v-.2c.1-.4.1-.8.2-1.2.3-1 1.4-1.5 2.1-2.3.7-.8 1.1-1.8 1.1-2.9v-.1c0-1-.3-2-.8-2.9-.8-1.5-2.4-2.7-4.1-2.4-1.1.2-2 .9-3 1-1 .1-1.9-.5-2.9-.9-2.2-1-4.8-1.2-7.1-.6-.7.1-1.4.5-2 1-.4.5-.7.9-1.1 1.4-1.2 1.5-3.3 1.8-5.3 2.1s-4.1 1.1-4.7 2.9c-.1.4-.2.9-.2 1.3.1.9.2 1.7.4 2.6v.1c.1.2 0 .4-.1.6-.3.5-1 .3-1.6.4-1.1.2-1.4 1.6-1.4 2.7 0 1.2-.1 2.5-.1 3.7v.4c0 .4 0 .7.1 1.1.2.7.6 1.3 1.1 1.8l4.3 5c1.7 2 3.4 4.2 3.5 6.7v.5c-.5 1-1.2 1.9-2 2.6l-.2.1s-3.1 1.2-11.2 5.8c-7.6 4.4-5.3 14.9-5.3 14.9zm57.9 152.1-.3.2.3-.2z" style="fill:url(#SVGID_1_)"/><path d="M60.2 212.8c.9-4.2.9-8.6 0-12.8-1.5-7-2.6-13.9-2.6-13.9s-.8-9.3-.1-15c.2-1.9.6-3.3 1.3-4 2.7-2.7 37.8 0 37.8 0l3.6 4.4v.4c.1 1.5.6 7.2 2.6 10.5 2.4 3.8 2.1 25.5 2.1 25.5l1.6 12.8s-1 7.9 0 9.3c1 1.4 2.4 38.1 2.4 38.1s-4.3 3.1-7.9 3.7c-1.3.2-2.5.1-3.4-.7.3-4.6-.4-9.1-1.9-13.4-2.5-6.8-3.3-19.4-2.7-27.5 0 0-7.6-33.7-13.7-36.8-.1.1-3 4-3.4 15.8-.4 12.1-4.6 20-4.6 20s1.9 20.5 0 28.2l2.7 12.9c-3.6.8-7.4.9-11.1.3-.3-4.7-1.1-9.3-2.1-13.8-1.6-6.3-5.1-20.4-2.1-29 1.5-5 2-10.1 1.5-15z" style="fill:#303351"/><path class="st6" d="M60.5 279.5c.1-.3.3-.6.5-.8 0 0 2.5-4.1 1.8-7-.5-2 2.2-3.5 3.9-4.3 1-.5 2.2-.5 3.3-.2.4.1.8.3 1.1.6.3.3.5.7.7 1.1.5 2.2 2.6 0 2.6 0s-1 4.6-.7 6.9c.1.9.3 2.1.5 3.3.3 1.9.3 3.7-.6 4.1-1.6.7-10.8 1.5-12.4-.5-.4-.4-.6-.9-.7-1.5-.3-.6-.2-1.2 0-1.7z"/><path class="st7" d="M60.5 279.5c2 .2 4 .2 6 .1.7 0 1.3 0 2 .1 2.8.3 4.5-.1 5.5-.6.3 1.9.3 3.7-.6 4.1-1.6.7-10.8 1.5-12.4-.5-.4-.4-.6-.9-.7-1.5s0-1.2.2-1.7zm19-86.3 2.2-2.4s11 14.1 13.4 34.7c2.1 18 5.3 40.9 6.1 46.2-1.3.2-2.5.1-3.4-.7.3-4.6-.4-9.1-1.9-13.4-2.5-6.8-3.3-19.4-2.7-27.5 0-.1-7.7-33.8-13.7-36.9z"/><path class="st8" d="M66.4 97c1.3-1 3-3.2 2.9-7.6-.1-2.2-.5-4.4-1.2-6.6l16.2 5.1c-.8 1.7-1.2 3.5-1.3 5.4 0 1.7.5 3.4 2.1 4.5.8.6 1.7 1 2.6 1.2 7.9 1.9-4.7 15.1-4.7 15.1l-9.3 4-7.5-12.6-1.5-7.5c.7-.2 1.2-.5 1.7-1z"/><path class="st7" d="M84.3 87.9c-.8 1.7-1.2 3.5-1.3 5.4-2.4.8-5 .8-7.5.1-2.5-.7-4.6-2.1-6.3-4.1-.1-2.2-.5-4.4-1.2-6.6l16.3 5.2z"/><path class="st8" d="M66.3 80.7c0-1.7.3-3.3 1-4.9.6-1.6 1.6-3 2.8-4.1 1.2-1.2 2.6-2.1 4.2-2.8 1.6-.6 3.2-1 4.9-1 2.5 0 5 .8 7.1 2.2 2.1 1.4 3.8 3.4 4.7 5.8 1 2.3 1.2 4.9.7 7.4s-1.7 4.8-3.5 6.6c-1.8 1.8-4.1 3-6.6 3.5s-5.1.2-7.4-.7c-2.3-1-4.3-2.6-5.8-4.7s-2.1-4.7-2.1-7.3z"/><path class="st7" d="M66.4 97c1.1 1.8 8.1 12.8 11.9 13.3 0 0 1.6.6 2.3-.4 0 0 5.9-8.2 4.5-12.1.8.6 1.7 1 2.6 1.2 7.9 1.9-4.7 15.1-4.7 15.1l-9.3 4-7.5-12.6-1.5-7.5c.7-.2 1.2-.5 1.7-1zm-7.6 70.1c2.7-2.7 37.8 0 37.8 0l3.6 4.4v.4c-2 .9-8.3.5-8.3.5s-10 .5-15.2 1.3c-4.7.7-17-2-19.3-2.6.3-1.9.7-3.4 1.4-4z"/><path class="st9" d="M78.4 110.7c-4.1-.6-12.1-13.6-12.1-13.6s-3 1.1-10.9 5.8c-7.9 4.6-5.7 15.1-5.7 15.1l12.8 17.4s-1.7 13.1-2.5 19.3c-.8 6.2-2.9 15.8-2.9 15.8s14.5 3.4 19.6 2.7c5.2-.7 15.2-1.3 15.2-1.3s11.6.6 8.3-2c-3.3-2.6-4-25.6-4-25.6s2 .6 7.7-.6c5.6-1.3 6.3-14 3.5-19.5-1.7-3.5-1.9-6.1-1.8-7.6.1-1.7 0-3.4-.4-5.1-2.4-10.1-9.2-9.2-9.2-9.2l-11.2-4.6c2.5 3.6-4.1 12.8-4.1 12.8-.8.9-2.3.2-2.3.2z"/><path class="st7" d="M94.3 125.1c-.2 1.8 3.1 5.4 3.1 5.4h-6.3s2.8-9 3.5-10.7c.8-1.6.6-5.8.6-5.8s-.6 9.3-.9 11.1z"/><path class="st8" d="M76.7 140c3.8-.7 11.8-7 11.8-7l6.8-5.3 1.5 2s-3.6 6.5-4.9 9.4c-1.3 2.9-15.2 6.3-15.2 6.3s-3.7-4.7 0-5.4z"/><path d="M76.7 140c3.8-.7 11.8-7 11.8-7l6.8-5.3 1.5 2s-3.6 6.5-4.9 9.4c-1.3 2.9-15.2 6.3-15.2 6.3s-3.7-4.7 0-5.4z" style="opacity:5.000000e-02;enable-background:new"/><path class="st8" d="M65.2 131.6c2.2.8 4.1-1.7 6.4-2.3 4.6-1.2 6.4.5 8 1 1.6.5 5.5.2 6.4.1h.2l3.6 3.3-3.9 8.8-.6-.3-2.3-1.3c-5.2-2.9-11.1-4.4-17.1-4.4h-1.2V129l.5 2.6z"/><path class="st7" d="M60.3 106.7c5.7.2 4 12.1 4 12.1 2.5 3.8 2.4 16.5 2.4 16.5s11.5 3 12.9 3.5c1.5.5-1.7 8.8-1.7 8.8S65.8 151.3 59 149c-6.8-2.4-8.9-24-8.9-24v-6.8l2.5-2.8c0-.1 2-8.9 7.7-8.7z"/><path class="st9" d="M59.9 106.7c5.7.2 4 12.1 4 12.1 2.5 3.8 2.4 16.5 2.4 16.5s11.5 3 12.9 3.5c1.5.5-1.7 8.8-1.7 8.8s-12.1 3.8-18.9 1.4c-6.8-2.4-8.9-24-8.9-24v-6.8l2.5-2.8c0-.1 2.1-8.9 7.7-8.7z"/><path class="st7" d="M70.2 90c-1.3-1.2-2.3-2.7-3-4.3-.7-1.6-1-3.4-1-5.2s.4-3.5 1.2-5.1c.7-1.6 1.8-3.1 3.1-4.2 1.3-1.2 2.9-2.1 4.6-2.6 1.7-.5 3.5-.7 5.2-.6 1.8.2 3.5.7 5 1.6 1.5.9 2.9 2 4 3.5-.1.4-.4.8-.7 1-.3.3-.7.5-1.1.5-.5 0-1 0-1.4-.2-.4-.2-.9-.4-1.2-.8-.7-.6-1.5-1-2.5-1-1.4 0-3.4.4-4.3 1.6-.7.9-.7 2.1-.7 3.3v3.2c.1.9-.1 1.9-.4 2.7-.4.8-1.4 1.5-2.3 1.2-1.1-.3-1.5-1.7-2.6-2-.4-.1-.8 0-1.2.2-.4.2-.6.5-.8.9-.3.8-.4 1.6-.3 2.4 0 1.4.2 2.7.4 3.9z"/><path class="st6" d="M84.9 73.3c-.7-.6-1.5-1-2.5-1-1.4 0-3.4.4-4.3 1.6-.7.9-.7 2.1-.7 3.3v3.2c.1.9-.1 1.9-.4 2.7-.4.8-1.4 1.5-2.3 1.2-1.1-.3-1.5-1.7-2.6-2-.4-.1-.8 0-1.2.2-.4.2-.6.5-.8.9-.3.8-.4 1.6-.3 2.5.1 1.6.3 3.3.7 4.9.2.9.4 1.9.1 2.8s-1.3 1.7-2.2 1.3c.4-2.9-1.6-5.4-3.4-7.6l-4.2-5c-.4-.4-.8-.9-1-1.4-.2-.5-.3-1.1-.2-1.7 0-1.2.1-2.5.1-3.7 0-1.1.3-2.4 1.4-2.7.6-.1 1.3.1 1.6-.4.1-.2.1-.5 0-.8-.2-1.2-.6-2.5-.2-3.7.6-1.8 2.7-2.5 4.6-2.9 1.9-.3 4-.6 5.1-2.1.3-.5.7-1 1-1.4.5-.5 1.2-.8 1.9-1 2.3-.6 4.8-.4 6.9.6.9.4 1.8 1 2.8.9 1-.1 1.9-.8 2.9-1 1.6-.3 3.2.9 4 2.4 1 1.8 1.1 4.3-.3 5.8-.7.7-1.8 1.3-2.1 2.3-.1.4-.1.8-.2 1.2-.1.4-.4.8-.7 1-.3.3-.7.5-1.1.5-.5.1-1 0-1.4-.2-.3-.1-.7-.3-1-.7z"/><path class="st7" d="m80.7 129.9 3.9-16.2c-7 16.2-3.9 16.2-3.9 16.2zm-7.4-1.7 1-.1c2-8.7-3.1-17.2-3.1-17.2 3.8 13.3 2.1 17.3 2.1 17.3zm-12.2 33.3c.5-4.9 6.8-2.8 6.8-2.8-5.6-.5-6.8 2.8-6.8 2.8zM97 130.9l-.8 13.8c-3.8.3-7.5-.3-11.1-1.5 2.3-3.5 1-12.3 1-12.3H97z"/><path class="st7" d="M86 130.5h.2l3.6 3.3-3.9 8.8-.6-.3c1.7-3.8.7-11.4.7-11.8z"/><path class="st9" d="m100.6 130.5-4.4 13.8c-3.8.3-7.5-.3-11.1-1.5 2.3-3.5 1-12.3 1-12.3h14.5z"/><path class="st6" d="M97.4 276c1-1.3 1.2-5.9 1.2-5.9 1.6 3 7.7-.4 7.7-.4.5-2.4 1.7-3 2.8-2.9.5 0 1 .2 1.4.4.4.3.8.6 1 1.1 1.3 2.2 5.9 6.2 5.9 6.2 1 1.5 4.7 2.8 6.7 3.5.5.2 1 .5 1.4.8.4.4.8.8 1 1.3.1.2.2.5.2.7s0 .5-.1.8c-.5 1.3-10.9 2.1-13.6.9-2.1-1-10.3-2.3-13.7-2.8-.6-.1-1.2-.4-1.6-.8-.4-.5-.7-1-.8-1.7v-.7c.2-.1.3-.3.5-.5z"/><path class="st7" d="M97.4 276c1.9.8 5.8 2 13.8 3.3 8.3 1.3 12.1.2 13.8-.9.7.4 1.3 1 1.7 1.8.1.2.2.5.2.7 0 .3 0 .5-.1.8-.5 1.3-10.9 2.1-13.6.9-2.1-1-10.3-2.3-13.7-2.8-.6-.1-1.2-.4-1.6-.8-.4-.5-.7-1-.8-1.7v-.7c0-.2.1-.4.3-.6z"/><path d="M62.8 71.1c-.2-.8-.3-1.5-.4-2.3 0 1 .1 1.9.4 2.8v.1-.6zm9.3 11.3c1.1.3 1.5 1.7 2.6 2 .9.3 1.9-.3 2.3-1.2.4-.9.5-1.8.4-2.7v-3.1c0-1.1 0-2.4.7-3.3.9-1.1 2.9-1.6 4.3-1.6.9 0 1.8.4 2.5 1 .3.3.7.6 1.2.8.4.2.9.2 1.4.2.4-.1.8-.2 1.1-.5.3-.3.6-.6.7-1 .1-.4.1-.8.2-1.2.3-1 1.3-1.5 2.1-2.3.4-.4.7-.9.9-1.5.2-.6.3-1.1.2-1.7 0 1-.4 1.9-1.1 2.7-.7.7-1.8 1.3-2.1 2.2-.1.4-.1.8-.2 1.2-.1.4-.4.8-.7 1-.3.3-.7.5-1.1.5-.5 0-1 0-1.4-.2-.4-.2-.9-.4-1.2-.8-.7-.6-1.5-1-2.5-1-1.4 0-3.4.4-4.3 1.6-.7.9-.7 2.1-.7 3.3v3.1c.1.9-.1 1.9-.4 2.7-.4.8-1.4 1.5-2.3 1.2-1.1-.3-1.5-1.7-2.6-2-.4-.1-.8 0-1.2.2-.4.2-.6.5-.8.9-.3.6-.4 1.3-.3 2 0-.5.1-1 .3-1.4.2-.4.4-.7.8-.9.3-.2.8-.3 1.2-.2zm-12.5-3.2c0 .5 0 .9.1 1.4.2.6.6 1.2 1.1 1.7l4.2 5c1.6 2 3.3 4.2 3.5 6.6.1-2.7-1.7-5.1-3.5-7.2-1.4-1.7-2.8-3.3-4.2-5-.5-.5-.8-1.1-1.1-1.7 0-.2-.1-.5-.1-.8zm8.8 15.2v.5c.9.4 1.9-.4 2.2-1.3.1-.4.2-.8.1-1.2 0 .2-.1.5-.1.7-.3.9-1.3 1.7-2.2 1.3z" style="opacity:.1"/><path class="st7" d="M106.2 269.7c4.8 2 6.1-.3 6.1-.3l-6.1.3zm-43.4 1.9c5.2 3.2 9.3-1.6 9.3-1.6l-9.3 1.6zm-1.2-56.7s1.6 1.8 1.5.8c-.1-1-3-2.8-3-2.8l1.5 2zm1.5 15.3c1.4.9 1.6-2-.6-2.1-1.3-.1-2.6-.5-3.6-1.4.1 0 2.8 2.6 4.2 3.5zM61 234c-1.1 1.3-2.5-5.5-2.5-5.5L61 234z"/><circle class="st12" cx="229.1" cy="75.1" r="22.6"/><circle class="st2" cx="208.6" cy="89.7" r="29.9"/><path class="st1" d="m206.2 107.4-17.5-17.6c-1.1-1.1-1.1-2.8 0-3.8l3.8-3.8c1.1-1.1 2.8-1.1 3.8 0L208.1 94l25.2-25.4c1.1-1.1 2.8-1.1 3.8 0l3.8 3.8c1.1 1.1 1.1 2.8 0 3.8L210 107.4c-1 1.1-2.7 1.1-3.8 0z"/><circle class="st1" cx="152.5" cy="36.5" r="23.3"/><defs><path id="SVGID_00000129899565733636143740000005422490125119961763_" d="M128.2 12.6h49.2v49.2h-49.2z"/></defs><clipPath id="SVGID_00000002346085280394923960000006684436793003330481_"><use xlink:href="#SVGID_00000129899565733636143740000005422490125119961763_" style="overflow:visible"/></clipPath><path class="st2" d="M177.3 37.2c0 13.6-11 24.6-24.6 24.6-13.6 0-24.6-11-24.6-24.6s11-24.6 24.6-24.6c13.6 0 24.6 11 24.6 24.6zm-27.4 13L168.2 32c.6-.6.6-1.6 0-2.2l-2.2-2.2c-.6-.6-1.6-.6-2.2 0l-14.9 14.9-6.9-6.9c-.6-.6-1.6-.6-2.2 0l-2.2 2.2c-.6.6-.6 1.6 0 2.2l10.3 10.3c.4.6 1.4.6 2-.1z" style="clip-path:url(#SVGID_00000002346085280394923960000006684436793003330481_)"/></g></svg>