<svg width="300" height="306" viewBox="0 0 300 306" fill="none" xmlns="http://www.w3.org/2000/svg">
<path opacity="0.6" d="M233.5 306C270.227 306 300 302.169 300 297.443C300 292.717 270.227 288.886 233.5 288.886C196.773 288.886 167 292.717 167 297.443C167 302.169 196.773 306 233.5 306Z" fill="#EEEEEE"/>
<path d="M157.407 214.853H17.855C7.90378 214.794 -0.115808 206.402 0.00126571 196.178V24.675C-0.0572712 14.451 7.90378 6.1182 17.855 6H147.749L175.32 28.9892V196.178C175.378 206.402 167.358 214.794 157.407 214.853Z" fill="#F0EEEA"/>
<path d="M16.5673 9.78186C9.36725 9.84096 3.57209 15.869 3.63063 23.2563V197.773C3.57209 205.161 9.36725 211.248 16.5673 211.248H158.52C165.719 211.189 171.515 205.161 171.456 197.773V30.3481L146.812 9.78186H16.5673Z" fill="white"/>
<path d="M125.638 60.1537H61.0128C59.3155 60.0946 57.9691 58.6762 57.9691 56.9624C57.9691 55.2486 59.3155 53.8302 60.9545 53.8302H125.638C127.335 53.8302 128.682 55.3076 128.682 57.0215C128.623 58.7353 127.277 60.1537 125.638 60.1537Z" fill="#FF8800"/>
<path d="M138.106 70.9093H61.0128C59.3155 70.8505 57.9691 69.4912 57.9691 67.777C57.9691 66.0634 59.3155 64.6452 60.9545 64.6452H138.106C139.804 64.7041 141.15 66.0634 141.15 67.777C141.15 69.4912 139.804 70.8505 138.106 70.9093Z" fill="#FF8800"/>
<path d="M125.638 155.893H61.0128C59.3155 155.834 57.9691 154.416 57.9691 152.702C57.9691 150.988 59.3155 149.57 60.9545 149.57H125.638C127.335 149.57 128.682 151.047 128.682 152.761C128.623 154.475 127.277 155.834 125.638 155.893Z" fill="#DDDDDD"/>
<path d="M138.106 166.59H61.0128C59.3155 166.531 57.9691 165.171 57.9691 163.457C57.9691 161.744 59.3155 160.326 61.0128 160.326H138.106C139.804 160.384 141.15 161.744 141.15 163.457C141.15 165.171 139.804 166.59 138.106 166.59Z" fill="#DDDDDD"/>
<path d="M34.0863 73.6274C39.9704 73.6274 44.7405 68.6004 44.7405 62.3991C44.7405 56.1975 39.9704 51.1703 34.0863 51.1703C28.2023 51.1703 23.4323 56.1975 23.4323 62.3991C23.4323 68.6004 28.2023 73.6274 34.0863 73.6274Z" fill="#FF8800"/>
<path d="M45.9113 110.269C45.9698 116.356 41.1696 121.379 35.2571 121.497H34.9645C28.9349 121.439 24.1347 116.415 24.1933 110.21C24.2518 104.004 29.1691 99.0403 35.1401 99.0992C41.0525 99.1586 45.8527 104.123 45.9113 110.269Z" fill="#DDDDDD"/>
<path d="M34.0863 169.308C39.9704 169.308 44.7405 164.281 44.7405 158.079C44.7405 151.877 39.9704 146.85 34.0863 146.85C28.2023 146.85 23.4323 151.877 23.4323 158.079C23.4323 164.281 28.2023 169.308 34.0863 169.308Z" fill="#DDDDDD"/>
<path d="M175.254 29.4155H153.123C149.768 29.3572 147.001 26.6196 147.06 23.183V6.40773C147.06 6.17474 147.178 6 147.413 6C147.473 6 147.59 6 147.649 6.05825L175.431 28.6582C175.607 28.7747 175.607 29.0077 175.489 29.1824C175.489 29.2989 175.372 29.4155 175.254 29.4155Z" fill="#DDDDDD"/>
<path d="M202.154 140.329C201.481 142.456 199.21 143.586 197.159 142.902C197.088 142.917 197.073 142.846 197.003 142.86L144.573 122.97C142.422 122.158 141.341 119.728 142.07 117.514C142.741 115.386 145.014 114.256 147.065 114.941C147.136 114.926 147.149 114.997 147.22 114.982L199.651 134.873C201.815 135.755 202.896 138.186 202.154 140.329Z" fill="#404F6C"/>
<path d="M245.977 109.847C253.445 109.847 259.499 103.497 259.499 95.6638C259.499 87.8308 253.445 81.4803 245.977 81.4803C238.508 81.4803 232.454 87.8308 232.454 95.6638C232.454 103.497 238.508 109.847 245.977 109.847Z" fill="#F7C4A7"/>
<path d="M245.098 174.973C244.045 171.664 245.801 168.118 249.02 166.995C249.254 166.936 249.488 166.877 249.664 166.818C249.957 166.759 250.191 166.759 250.483 166.7L264.708 142.765L251.713 129.822C249.664 127.754 249.547 124.326 251.537 122.14C253.41 120.012 256.63 119.894 258.737 121.844C258.796 121.903 258.854 121.962 258.913 121.962L258.971 122.021L276.942 140.519L277.001 140.578C278.113 142.41 277.996 144.774 276.649 146.429L256.689 171.132C256.747 171.309 256.805 171.546 256.864 171.723C257.508 175.151 255.401 178.46 252.122 179.169C251.888 179.229 251.654 179.229 251.42 179.287H250.893C248.259 179.347 245.917 177.574 245.098 174.973Z" fill="#F7C4A7"/>
<path d="M223.733 292.521H217L213.839 265.276H223.733V292.521Z" fill="#F7C4A7"/>
<path d="M225.489 299.317H203.713V299.022C203.654 294.176 207.459 290.216 212.142 290.157H225.43L225.489 299.317Z" fill="#253255"/>
<path d="M290.816 282.769L285.021 286.374L268.981 264.685L277.528 259.367L290.816 282.769Z" fill="#F7C4A7"/>
<path d="M295.616 287.733L276.884 299.376L276.767 299.139C274.366 294.943 275.655 289.565 279.693 287.024L291.109 279.932L295.616 287.733Z" fill="#253255"/>
<path d="M212.903 280.523C208.395 224.852 205.702 173.141 222.21 152.044L222.327 151.866L250.132 163.508L250.191 163.627C250.308 163.863 259.498 185.139 257.391 199.441L264.24 232.477L286.601 271.659C287.303 272.9 286.893 274.495 285.723 275.204C285.664 275.264 285.547 275.323 285.43 275.323L275.713 279.814C274.601 280.346 273.254 279.873 272.61 278.81L248.259 237.264L234.561 205.409C234.386 204.996 233.859 204.819 233.449 204.996C233.157 205.114 232.981 205.409 232.981 205.705L225.371 280.642C225.254 281.941 224.2 282.946 222.913 282.946H215.361C214.074 282.828 213.02 281.824 212.903 280.523Z" fill="#293A56"/>
<path d="M222.386 152.458L222.269 152.398V152.221C221.215 144.597 222.444 136.205 225.898 127.104C229.352 118.003 238.776 112.921 248.025 115.166C253.235 116.526 257.625 120.072 260.142 124.918C262.659 129.764 263.128 135.496 261.43 140.697C258.503 149.503 255.166 158.19 251.361 166.7L251.245 166.937L222.386 152.458Z" fill="#006369"/>
<path d="M192.005 133.546C194.581 131.419 198.386 131.833 200.435 134.492L200.493 134.551C200.668 134.729 200.785 134.965 200.903 135.142L201.254 135.851L227.654 141.466L234.679 124.15C235.732 121.431 238.776 120.131 241.41 121.254H241.469C244.103 122.436 245.332 125.627 244.22 128.346C244.22 128.405 244.22 128.405 244.162 128.405L233.859 152.517V152.576C232.688 154.29 230.464 154.999 228.532 154.349L199.439 143.416C199.264 143.534 199.146 143.652 198.971 143.77C196.161 145.603 192.473 144.716 190.717 141.82C190.717 141.761 190.659 141.761 190.659 141.702C190.542 141.525 190.424 141.288 190.307 141.111C190.249 140.934 190.19 140.815 190.132 140.638C189.137 138.156 189.898 135.26 192.005 133.546Z" fill="#F7C4A7"/>
<path d="M294.855 110.852C293.567 108.43 291.635 106.184 289.176 105.297C285.957 104.175 282.445 105.356 279.108 106.184C276.532 106.893 273.898 107.07 271.264 106.657C268.63 106.184 266.288 104.529 265.001 102.047C263.245 98.4419 264.708 94.0685 264.649 90.0499C264.532 82.0717 258.093 75.6893 250.366 75.807C249.254 75.807 248.142 75.9847 247.088 76.2801C243.927 75.3345 241 75.2756 239.069 77.8166C233.859 77.8754 229.644 82.2488 229.703 87.5678H238.659C238.249 89.9317 238.718 92.4138 240.005 94.4233C241.586 96.846 244.337 98.5602 244.864 101.456C245.391 104.233 243.576 106.893 241.644 108.902C239.771 110.971 237.547 112.921 236.962 115.698C236.61 117.826 237.02 119.953 238.132 121.786C239.245 123.559 240.591 125.154 242.171 126.514C249.313 132.896 257.801 137.446 266.991 139.751C273.43 141.406 280.454 141.82 286.484 138.806C296.142 133.842 300.182 121.904 295.615 111.857C295.264 111.621 295.088 111.207 294.855 110.852Z" fill="#171717"/>
<path d="M33.852 54.0666C31.3934 54.1257 29.4031 55.7214 29.286 57.7307V58.0853C29.286 58.6172 29.7543 59.0309 30.3983 59.0309H30.4568C31.1007 59.0309 31.6276 58.6172 31.6276 58.1444V57.908C31.569 56.9624 32.5057 56.135 33.735 56.076C34.9643 56.0169 35.9595 56.7851 36.018 57.7898V57.908C36.018 58.499 35.6667 59.09 35.0228 59.3854C34.0276 59.9173 33.2667 60.6265 32.8569 61.5129C32.7398 61.7494 32.6812 61.986 32.6812 62.2814V64.0544C32.6812 64.5864 33.1496 65 33.7935 65H33.852C34.4959 65 35.0228 64.5864 35.0228 64.1132V62.5179C35.1984 61.69 35.7839 60.9811 36.6034 60.5674C37.4815 60.0355 38.0669 59.2673 38.3011 58.3808C38.3596 58.2035 38.4181 58.0262 38.3596 57.8489C38.3596 55.7214 36.3692 54.0666 33.852 54.0666Z" fill="white"/>
<path d="M33.969 70.2584C34.6802 70.2584 35.2568 69.6233 35.2568 68.8402C35.2568 68.0572 34.6802 67.4221 33.969 67.4221C33.2577 67.4221 32.6811 68.0572 32.6811 68.8402C32.6811 69.6233 33.2577 70.2584 33.969 70.2584Z" fill="white"/>
<rect x="60.0241" y="114.013" width="75.7805" height="6.0427" rx="3.02135" fill="#DDDDDD"/>
<rect x="59.2738" y="103.439" width="75.0302" height="6.0427" rx="3.02135" fill="#DDDDDD"/>
<rect x="98.2895" y="103.439" width="39.0157" height="6.0427" rx="3.02135" fill="#FF8800"/>
<rect x="97.5392" y="114.013" width="38.2654" height="6.0427" rx="3.02135" fill="#FF8800"/>
<path d="M145.216 124.601C137.416 137.739 120.321 142.098 107.032 134.349C106.845 134.227 106.72 134.167 106.533 134.045C93.2433 125.752 89.0631 108.498 97.174 95.1184C104.973 81.9813 122.068 77.6224 135.358 85.3715C135.545 85.4927 135.669 85.553 135.857 85.6741C149.084 94.029 153.264 111.283 145.216 124.601ZM103.164 98.8112C97.1116 108.8 100.231 121.817 110.214 127.992C120.01 133.985 132.862 131.019 138.914 121.393C139.039 121.211 139.101 121.09 139.226 120.908C145.278 110.919 142.158 97.9033 132.176 91.7281C122.318 85.735 109.403 88.7617 103.351 98.5086C103.288 98.5694 103.226 98.6906 103.164 98.8112Z" fill="#404F6C"/>
</svg>
