<svg width="399" height="162" viewBox="0 0 399 162" fill="none" xmlns="http://www.w3.org/2000/svg">
<g id="logo-dark">
<rect id="QUADRAT" y="26" width="136" height="136" fill="#FF3300"/>
<path id="W" d="M106.877 59.0857C108.863 59.0857 110.59 59.8629 112.058 61.4172C113.526 62.8851 114.26 64.7848 114.26 67.1162C114.26 67.7207 114.217 68.2819 114.13 68.8C114.044 69.2318 113.914 69.6635 113.742 70.0953L93.9245 123.459C93.32 125.186 92.2407 126.524 90.6864 127.474C89.1321 128.338 87.4914 128.64 85.7645 128.381C82.8286 128.208 80.6267 126.568 79.1587 123.459L66.3359 86.5448L69.7035 86.6743L57.6578 123.459C56.1899 126.568 53.988 128.208 51.0521 128.381C49.4114 128.64 47.7708 128.338 46.1302 127.474C44.5759 126.524 43.4965 125.186 42.8921 123.459L23.0749 70.0953C22.7295 69.1454 22.5568 68.1524 22.5568 67.1162C22.5568 65.0438 23.2476 63.1873 24.6292 61.5467C26.0108 59.906 27.9105 59.0857 30.3283 59.0857C31.9689 59.0857 33.4368 59.4743 34.7321 60.2514C36.0273 61.0286 36.934 62.2807 37.4521 64.0076L53.1245 106.491L49.8864 106.232L61.673 74.24C63.0546 71.0451 65.4292 69.4476 68.7968 69.4476C70.6965 69.4476 72.1213 69.8794 73.0711 70.7429C74.1073 71.52 74.9276 72.6857 75.5321 74.24L87.3188 106.232L83.433 106.75L99.3645 64.0076C100.401 60.7264 102.905 59.0857 106.877 59.0857Z" fill="white"/>
<path id="eng" d="M195.52 129.28C188.437 129.28 182.293 127.829 177.088 124.928C171.883 121.941 167.829 117.888 164.928 112.768C162.112 107.563 160.704 101.632 160.704 94.976C160.704 87.4667 162.197 81.0667 165.184 75.776C168.256 70.4 172.224 66.304 177.088 63.488C181.952 60.5867 187.115 59.136 192.576 59.136C196.757 59.136 200.725 59.9893 204.48 61.696C208.235 63.3173 211.563 65.6213 214.464 68.608C217.451 71.5093 219.797 74.9653 221.504 78.976C223.211 82.9013 224.107 87.2107 224.192 91.904C224.107 93.6107 223.424 95.0187 222.144 96.128C220.864 97.2373 219.371 97.792 217.664 97.792H167.872L164.8 86.912H212.928L210.496 89.216V86.016C210.325 83.0293 209.344 80.4267 207.552 78.208C205.76 75.904 203.541 74.1547 200.896 72.96C198.251 71.68 195.477 71.04 192.576 71.04C190.016 71.04 187.541 71.4667 185.152 72.32C182.848 73.088 180.757 74.368 178.88 76.16C177.088 77.952 175.637 80.3413 174.528 83.328C173.504 86.2293 172.992 89.856 172.992 94.208C172.992 98.9013 173.973 102.997 175.936 106.496C177.899 109.995 180.544 112.725 183.872 114.688C187.2 116.565 190.869 117.504 194.88 117.504C198.037 117.504 200.64 117.205 202.688 116.608C204.736 115.925 206.443 115.115 207.808 114.176C209.173 113.237 210.368 112.341 211.392 111.488C212.672 110.72 213.952 110.336 215.232 110.336C216.768 110.336 218.048 110.891 219.072 112C220.096 113.024 220.608 114.261 220.608 115.712C220.608 117.589 219.669 119.296 217.792 120.832C215.488 123.051 212.288 125.013 208.192 126.72C204.181 128.427 199.957 129.28 195.52 129.28ZM279.748 59.136C285.807 59.136 290.5 60.416 293.828 62.976C297.156 65.4507 299.46 68.8213 300.74 73.088C302.105 77.2693 302.788 81.9627 302.788 87.168V121.472C302.788 123.349 302.148 124.928 300.868 126.208C299.673 127.403 298.18 128 296.388 128C294.511 128 292.975 127.403 291.78 126.208C290.585 124.928 289.988 123.349 289.988 121.472V87.296C289.988 84.224 289.561 81.4933 288.708 79.104C287.855 76.6293 286.361 74.6667 284.228 73.216C282.18 71.68 279.279 70.912 275.524 70.912C272.025 70.912 268.953 71.68 266.308 73.216C263.663 74.6667 261.572 76.6293 260.036 79.104C258.585 81.4933 257.86 84.224 257.86 87.296V121.472C257.86 123.349 257.22 124.928 255.94 126.208C254.745 127.403 253.252 128 251.46 128C249.583 128 248.047 127.403 246.852 126.208C245.657 124.928 245.06 123.349 245.06 121.472V67.2C245.06 65.3227 245.657 63.7867 246.852 62.592C248.047 61.312 249.583 60.672 251.46 60.672C253.252 60.672 254.745 61.312 255.94 62.592C257.22 63.7867 257.86 65.3227 257.86 67.2V74.368L255.556 75.648C256.153 73.7707 257.177 71.8933 258.628 70.016C260.164 68.0533 261.999 66.2613 264.132 64.64C266.265 62.9333 268.655 61.6107 271.3 60.672C273.945 59.648 276.761 59.136 279.748 59.136ZM354.992 59.136C358.661 59.136 362.032 59.7333 365.104 60.928C368.176 62.1227 370.821 63.6587 373.04 65.536C375.344 67.328 377.136 69.2053 378.416 71.168C379.696 73.1307 380.336 74.8373 380.336 76.288L377.392 76.416V66.176C377.392 64.384 377.989 62.848 379.184 61.568C380.379 60.288 381.915 59.648 383.792 59.648C385.669 59.648 387.205 60.288 388.4 61.568C389.595 62.7627 390.192 64.2987 390.192 66.176V122.624C390.192 129.877 388.656 135.765 385.584 140.288C382.512 144.896 378.416 148.267 373.296 150.4C368.261 152.533 362.715 153.6 356.656 153.6C354.523 153.6 352.005 153.301 349.104 152.704C346.203 152.192 343.515 151.552 341.04 150.784C338.651 150.016 336.987 149.248 336.048 148.48C334.085 147.456 332.763 146.261 332.08 144.896C331.483 143.531 331.483 142.165 332.08 140.8C332.933 138.923 334.085 137.771 335.536 137.344C336.987 136.917 338.651 137.045 340.528 137.728C341.381 137.984 342.704 138.453 344.496 139.136C346.288 139.819 348.293 140.416 350.512 140.928C352.731 141.525 354.821 141.824 356.784 141.824C363.611 141.824 368.731 140.245 372.144 137.088C375.643 133.931 377.392 129.621 377.392 124.16V112.64L378.8 113.536C378.544 115.328 377.733 117.163 376.368 119.04C375.088 120.832 373.381 122.496 371.248 124.032C369.115 125.568 366.64 126.848 363.824 127.872C361.093 128.811 358.277 129.28 355.376 129.28C349.317 129.28 343.899 127.787 339.12 124.8C334.341 121.728 330.544 117.589 327.728 112.384C324.912 107.093 323.504 101.035 323.504 94.208C323.504 87.3813 324.912 81.3653 327.728 76.16C330.544 70.8693 334.299 66.7307 338.992 63.744C343.771 60.672 349.104 59.136 354.992 59.136ZM356.912 70.912C352.731 70.912 349.061 71.936 345.904 73.984C342.747 76.032 340.272 78.8053 338.48 82.304C336.688 85.8027 335.792 89.7707 335.792 94.208C335.792 98.6453 336.688 102.613 338.48 106.112C340.272 109.611 342.747 112.384 345.904 114.432C349.061 116.48 352.731 117.504 356.912 117.504C361.093 117.504 364.763 116.523 367.92 114.56C371.077 112.512 373.552 109.739 375.344 106.24C377.136 102.656 378.032 98.6453 378.032 94.208C378.032 89.7707 377.136 85.8027 375.344 82.304C373.552 78.72 371.077 75.9467 367.92 73.984C364.763 71.936 361.093 70.912 356.912 70.912Z" fill="white"/>
</g>
</svg>
