<svg width="391" height="136" viewBox="0 0 391 136" fill="none" xmlns="http://www.w3.org/2000/svg">
<g id="logo-weng">
<g id="ENG">
<path d="M195.52 103.28C188.437 103.28 182.293 101.829 177.088 98.928C171.883 95.9413 167.829 91.888 164.928 86.768C162.112 81.5627 160.704 75.632 160.704 68.976C160.704 61.4667 162.197 55.0667 165.184 49.776C168.256 44.4 172.224 40.304 177.088 37.488C181.952 34.5867 187.115 33.136 192.576 33.136C196.757 33.136 200.725 33.9893 204.48 35.696C208.235 37.3173 211.563 39.6213 214.464 42.608C217.451 45.5093 219.797 48.9653 221.504 52.976C223.211 56.9013 224.107 61.2107 224.192 65.904C224.107 67.6107 223.424 69.0187 222.144 70.128C220.864 71.2373 219.371 71.792 217.664 71.792H167.872L164.8 60.912H212.928L210.496 63.216V60.016C210.325 57.0293 209.344 54.4267 207.552 52.208C205.76 49.904 203.541 48.1547 200.896 46.96C198.251 45.68 195.477 45.04 192.576 45.04C190.016 45.04 187.541 45.4667 185.152 46.32C182.848 47.088 180.757 48.368 178.88 50.16C177.088 51.952 175.637 54.3413 174.528 57.328C173.504 60.2293 172.992 63.856 172.992 68.208C172.992 72.9013 173.973 76.9973 175.936 80.496C177.899 83.9947 180.544 86.7253 183.872 88.688C187.2 90.5653 190.869 91.504 194.88 91.504C198.037 91.504 200.64 91.2053 202.688 90.608C204.736 89.9253 206.443 89.1147 207.808 88.176C209.173 87.2373 210.368 86.3413 211.392 85.488C212.672 84.72 213.952 84.336 215.232 84.336C216.768 84.336 218.048 84.8907 219.072 86C220.096 87.024 220.608 88.2613 220.608 89.712C220.608 91.5893 219.669 93.296 217.792 94.832C215.488 97.0507 212.288 99.0133 208.192 100.72C204.181 102.427 199.957 103.28 195.52 103.28Z" fill="#D72B00"/>
<path d="M279.748 33.136C285.807 33.136 290.5 34.416 293.828 36.976C297.156 39.4507 299.46 42.8213 300.74 47.088C302.105 51.2693 302.788 55.9627 302.788 61.168V95.472C302.788 97.3493 302.148 98.928 300.868 100.208C299.673 101.403 298.18 102 296.388 102C294.511 102 292.975 101.403 291.78 100.208C290.585 98.928 289.988 97.3493 289.988 95.472V61.296C289.988 58.224 289.561 55.4933 288.708 53.104C287.855 50.6293 286.361 48.6667 284.228 47.216C282.18 45.68 279.279 44.912 275.524 44.912C272.025 44.912 268.953 45.68 266.308 47.216C263.663 48.6667 261.572 50.6293 260.036 53.104C258.585 55.4933 257.86 58.224 257.86 61.296V95.472C257.86 97.3493 257.22 98.928 255.94 100.208C254.745 101.403 253.252 102 251.46 102C249.583 102 248.047 101.403 246.852 100.208C245.657 98.928 245.06 97.3493 245.06 95.472V41.2C245.06 39.3227 245.657 37.7867 246.852 36.592C248.047 35.312 249.583 34.672 251.46 34.672C253.252 34.672 254.745 35.312 255.94 36.592C257.22 37.7867 257.86 39.3227 257.86 41.2V48.368L255.556 49.648C256.153 47.7707 257.177 45.8933 258.628 44.016C260.164 42.0533 261.999 40.2613 264.132 38.64C266.265 36.9333 268.655 35.6107 271.3 34.672C273.945 33.648 276.761 33.136 279.748 33.136Z" fill="#D72B00"/>
<path d="M354.992 33.136C358.661 33.136 362.032 33.7333 365.104 34.928C368.176 36.1227 370.821 37.6587 373.04 39.536C375.344 41.328 377.136 43.2053 378.416 45.168C379.696 47.1307 380.336 48.8373 380.336 50.288L377.392 50.416V40.176C377.392 38.384 377.989 36.848 379.184 35.568C380.379 34.288 381.915 33.648 383.792 33.648C385.669 33.648 387.205 34.288 388.4 35.568C389.595 36.7627 390.192 38.2987 390.192 40.176V96.624C390.192 103.877 388.656 109.765 385.584 114.288C382.512 118.896 378.416 122.267 373.296 124.4C368.261 126.533 362.715 127.6 356.656 127.6C354.523 127.6 352.005 127.301 349.104 126.704C346.203 126.192 343.515 125.552 341.04 124.784C338.651 124.016 336.987 123.248 336.048 122.48C334.085 121.456 332.763 120.261 332.08 118.896C331.483 117.531 331.483 116.165 332.08 114.8C332.933 112.923 334.085 111.771 335.536 111.344C336.987 110.917 338.651 111.045 340.528 111.728C341.381 111.984 342.704 112.453 344.496 113.136C346.288 113.819 348.293 114.416 350.512 114.928C352.731 115.525 354.821 115.824 356.784 115.824C363.611 115.824 368.731 114.245 372.144 111.088C375.643 107.931 377.392 103.621 377.392 98.16V86.64L378.8 87.536C378.544 89.328 377.733 91.1627 376.368 93.04C375.088 94.832 373.381 96.496 371.248 98.032C369.115 99.568 366.64 100.848 363.824 101.872C361.093 102.811 358.277 103.28 355.376 103.28C349.317 103.28 343.899 101.787 339.12 98.8C334.341 95.728 330.544 91.5893 327.728 86.384C324.912 81.0933 323.504 75.0347 323.504 68.208C323.504 61.3813 324.912 55.3653 327.728 50.16C330.544 44.8693 334.299 40.7307 338.992 37.744C343.771 34.672 349.104 33.136 354.992 33.136ZM356.912 44.912C352.731 44.912 349.061 45.936 345.904 47.984C342.747 50.032 340.272 52.8053 338.48 56.304C336.688 59.8027 335.792 63.7707 335.792 68.208C335.792 72.6453 336.688 76.6133 338.48 80.112C340.272 83.6107 342.747 86.384 345.904 88.432C349.061 90.48 352.731 91.504 356.912 91.504C361.093 91.504 364.763 90.5227 367.92 88.56C371.077 86.512 373.552 83.7387 375.344 80.24C377.136 76.656 378.032 72.6453 378.032 68.208C378.032 63.7707 377.136 59.8027 375.344 56.304C373.552 52.72 371.077 49.9467 367.92 47.984C364.763 45.936 361.093 44.912 356.912 44.912Z" fill="#D72B00"/>
</g>
<rect id="SQUARE" width="136" height="136" fill="#D72B00"/>
<g id="W">
<path d="M99.6931 37.9508C101.253 33.7886 105.892 31.6792 110.054 33.2393C114.216 34.7994 116.326 39.4382 114.766 43.6004L94.6388 97.2969C93.0786 101.459 88.4398 103.568 84.2776 102.008C80.1154 100.448 78.006 95.8094 79.5661 91.6472L99.6931 37.9508Z" fill="white"/>
<path d="M62.6244 46.5706C63.8805 43.1845 67.6437 41.4578 71.0298 42.7138C74.4159 43.9699 76.1426 47.7331 74.8866 51.1192L57.3921 98.2813C56.1361 101.667 52.3729 103.394 48.9868 102.138C45.6007 100.882 43.874 97.1188 45.13 93.7327L62.6244 46.5706Z" fill="white"/>
<path d="M23.0181 43.4315C21.544 39.2381 23.7484 34.6436 27.9418 33.1695C32.1353 31.6954 36.7297 33.8998 38.2038 38.0932L57.2214 92.1925C58.6955 96.386 56.4911 100.98 52.2976 102.455C48.1042 103.929 43.5097 101.724 42.0356 97.5308L23.0181 43.4315Z" fill="white"/>
</g>
</g>
</svg>
