<svg width="801" height="391" viewBox="0 0 801 391" fill="none" xmlns="http://www.w3.org/2000/svg">
<g clip-path="url(#clip0_8_3)">
<path d="M720.578 178.559C722.735 178.559 724.483 176.811 724.483 174.654C724.483 172.497 722.735 170.749 720.578 170.749C718.421 170.749 716.673 172.497 716.673 174.654C716.673 176.811 718.421 178.559 720.578 178.559Z" fill="#A9A9A9"/>
<path d="M735.401 178.559C737.558 178.559 739.306 176.811 739.306 174.654C739.306 172.497 737.558 170.749 735.401 170.749C733.244 170.749 731.496 172.497 731.496 174.654C731.496 176.811 733.244 178.559 735.401 178.559Z" fill="#A9A9A9"/>
<path d="M750.226 178.559C752.383 178.559 754.131 176.811 754.131 174.654C754.131 172.497 752.383 170.749 750.226 170.749C748.069 170.749 746.321 172.497 746.321 174.654C746.321 176.811 748.069 178.559 750.226 178.559Z" fill="#A9A9A9"/>
<path d="M534.825 103.33C534.227 103.321 533.633 103.431 533.078 103.654C532.522 103.877 532.017 104.208 531.591 104.627C531.165 105.047 530.826 105.548 530.595 106.099C530.364 106.651 530.246 107.243 530.246 107.842C530.246 108.44 530.364 109.032 530.595 109.584C530.826 110.135 531.165 110.636 531.591 111.056C532.017 111.475 532.522 111.806 533.078 112.029C533.633 112.252 534.227 112.362 534.825 112.353H647.936C648.528 112.363 649.117 112.256 649.668 112.038C650.219 111.82 650.722 111.496 651.148 111.084C651.573 110.672 651.914 110.18 652.149 109.636C652.385 109.093 652.512 108.508 652.521 107.916C652.531 107.323 652.424 106.734 652.206 106.183C651.988 105.632 651.664 105.13 651.252 104.704C650.84 104.278 650.348 103.937 649.805 103.702C649.261 103.466 648.676 103.34 648.084 103.33H534.825Z" fill="#FF3300"/>
<path d="M673.587 102.074C673.42 102.241 673.327 102.466 673.327 102.702C673.327 102.937 673.42 103.163 673.587 103.329L677.398 107.14H667.998C667.768 107.148 667.549 107.245 667.389 107.41C667.229 107.576 667.139 107.797 667.139 108.028C667.139 108.258 667.229 108.479 667.389 108.645C667.549 108.81 667.768 108.907 667.998 108.915H677.398L673.587 112.726C673.499 112.807 673.429 112.905 673.381 113.014C673.332 113.123 673.306 113.241 673.304 113.36C673.301 113.479 673.323 113.598 673.368 113.709C673.413 113.819 673.479 113.92 673.564 114.004C673.648 114.089 673.748 114.155 673.859 114.2C673.97 114.244 674.088 114.266 674.208 114.264C674.327 114.262 674.444 114.236 674.553 114.187C674.662 114.138 674.76 114.068 674.842 113.981L680.168 108.655C680.334 108.489 680.427 108.263 680.427 108.028C680.427 107.792 680.334 107.567 680.168 107.4L674.842 102.074C674.675 101.908 674.449 101.814 674.214 101.814C673.979 101.814 673.753 101.908 673.587 102.074Z" fill="#A9A9A9"/>
<path d="M509.125 102.074C509.291 102.241 509.384 102.466 509.384 102.702C509.384 102.937 509.291 103.163 509.125 103.329L505.314 107.14H514.714C514.944 107.148 515.162 107.245 515.322 107.41C515.482 107.576 515.572 107.797 515.572 108.028C515.572 108.258 515.482 108.479 515.322 108.645C515.162 108.81 514.944 108.907 514.714 108.915H505.314L509.125 112.726C509.212 112.807 509.282 112.905 509.331 113.014C509.379 113.123 509.406 113.241 509.408 113.36C509.41 113.479 509.388 113.598 509.343 113.709C509.299 113.819 509.232 113.92 509.148 114.004C509.063 114.089 508.963 114.155 508.852 114.2C508.742 114.244 508.623 114.266 508.504 114.264C508.385 114.262 508.267 114.236 508.158 114.187C508.049 114.138 507.951 114.068 507.87 113.981L502.544 108.66C502.377 108.494 502.284 108.268 502.284 108.033C502.284 107.797 502.377 107.572 502.544 107.405L507.87 102.079C507.952 101.997 508.05 101.931 508.158 101.887C508.265 101.842 508.381 101.819 508.497 101.819C508.614 101.819 508.729 101.842 508.837 101.887C508.945 101.931 509.042 101.997 509.125 102.079V102.074Z" fill="#A9A9A9"/>
<path d="M539.391 9.696C542.068 9.696 544.239 7.52548 544.239 4.848C544.239 2.17052 542.068 0 539.391 0C536.713 0 534.543 2.17052 534.543 4.848C534.543 7.52548 536.713 9.696 539.391 9.696Z" fill="#A9A9A9"/>
<path d="M559.591 9.696C562.268 9.696 564.439 7.52548 564.439 4.848C564.439 2.17052 562.268 0 559.591 0C556.913 0 554.743 2.17052 554.743 4.848C554.743 7.52548 556.913 9.696 559.591 9.696Z" fill="#A9A9A9"/>
<path d="M579.791 9.696C582.468 9.696 584.639 7.52548 584.639 4.848C584.639 2.17052 582.468 0 579.791 0C577.113 0 574.943 2.17052 574.943 4.848C574.943 7.52548 577.113 9.696 579.791 9.696Z" fill="#A9A9A9"/>
<path d="M599.992 9.696C602.669 9.696 604.84 7.52548 604.84 4.848C604.84 2.17052 602.669 0 599.992 0C597.314 0 595.144 2.17052 595.144 4.848C595.144 7.52548 597.314 9.696 599.992 9.696Z" fill="#A9A9A9"/>
<path d="M620.192 9.696C622.869 9.696 625.04 7.52548 625.04 4.848C625.04 2.17052 622.869 0 620.192 0C617.514 0 615.344 2.17052 615.344 4.848C615.344 7.52548 617.514 9.696 620.192 9.696Z" fill="#A9A9A9"/>
<path d="M640.392 9.696C643.069 9.696 645.24 7.52548 645.24 4.848C645.24 2.17052 643.069 0 640.392 0C637.714 0 635.544 2.17052 635.544 4.848C635.544 7.52548 637.714 9.696 640.392 9.696Z" fill="#A9A9A9"/>
<path d="M660.592 9.696C663.269 9.696 665.44 7.52548 665.44 4.848C665.44 2.17052 663.269 0 660.592 0C657.914 0 655.744 2.17052 655.744 4.848C655.744 7.52548 657.914 9.696 660.592 9.696Z" fill="#A9A9A9"/>
<path d="M539.391 25.048C542.068 25.048 544.239 22.8775 544.239 20.2C544.239 17.5225 542.068 15.352 539.391 15.352C536.713 15.352 534.543 17.5225 534.543 20.2C534.543 22.8775 536.713 25.048 539.391 25.048Z" fill="#A9A9A9"/>
<path d="M559.591 25.048C562.268 25.048 564.439 22.8775 564.439 20.2C564.439 17.5225 562.268 15.352 559.591 15.352C556.913 15.352 554.743 17.5225 554.743 20.2C554.743 22.8775 556.913 25.048 559.591 25.048Z" fill="#A9A9A9"/>
<path d="M579.791 25.048C582.468 25.048 584.639 22.8775 584.639 20.2C584.639 17.5225 582.468 15.352 579.791 15.352C577.113 15.352 574.943 17.5225 574.943 20.2C574.943 22.8775 577.113 25.048 579.791 25.048Z" fill="#A9A9A9"/>
<path d="M599.992 25.048C602.669 25.048 604.84 22.8775 604.84 20.2C604.84 17.5225 602.669 15.352 599.992 15.352C597.314 15.352 595.144 17.5225 595.144 20.2C595.144 22.8775 597.314 25.048 599.992 25.048Z" fill="#A9A9A9"/>
<path d="M620.192 25.048C622.869 25.048 625.04 22.8775 625.04 20.2C625.04 17.5225 622.869 15.352 620.192 15.352C617.514 15.352 615.344 17.5225 615.344 20.2C615.344 22.8775 617.514 25.048 620.192 25.048Z" fill="#A9A9A9"/>
<path d="M640.392 25.048C643.069 25.048 645.24 22.8775 645.24 20.2C645.24 17.5225 643.069 15.352 640.392 15.352C637.714 15.352 635.544 17.5225 635.544 20.2C635.544 22.8775 637.714 25.048 640.392 25.048Z" fill="#A9A9A9"/>
<path d="M660.592 25.048C663.269 25.048 665.44 22.8775 665.44 20.2C665.44 17.5225 663.269 15.352 660.592 15.352C657.914 15.352 655.744 17.5225 655.744 20.2C655.744 22.8775 657.914 25.048 660.592 25.048Z" fill="#A9A9A9"/>
<path d="M539.391 40.4C542.068 40.4 544.239 38.2295 544.239 35.552C544.239 32.8745 542.068 30.704 539.391 30.704C536.713 30.704 534.543 32.8745 534.543 35.552C534.543 38.2295 536.713 40.4 539.391 40.4Z" fill="#A9A9A9"/>
<path d="M559.591 40.4C562.268 40.4 564.439 38.2295 564.439 35.552C564.439 32.8745 562.268 30.704 559.591 30.704C556.913 30.704 554.743 32.8745 554.743 35.552C554.743 38.2295 556.913 40.4 559.591 40.4Z" fill="#A9A9A9"/>
<path d="M579.791 40.4C582.468 40.4 584.639 38.2295 584.639 35.552C584.639 32.8745 582.468 30.704 579.791 30.704C577.113 30.704 574.943 32.8745 574.943 35.552C574.943 38.2295 577.113 40.4 579.791 40.4Z" fill="#A9A9A9"/>
<path d="M599.992 40.4C602.669 40.4 604.84 38.2295 604.84 35.552C604.84 32.8745 602.669 30.704 599.992 30.704C597.314 30.704 595.144 32.8745 595.144 35.552C595.144 38.2295 597.314 40.4 599.992 40.4Z" fill="#A9A9A9"/>
<path d="M620.192 40.4C622.869 40.4 625.04 38.2295 625.04 35.552C625.04 32.8745 622.869 30.704 620.192 30.704C617.514 30.704 615.344 32.8745 615.344 35.552C615.344 38.2295 617.514 40.4 620.192 40.4Z" fill="#A9A9A9"/>
<path d="M640.392 40.4C643.069 40.4 645.24 38.2295 645.24 35.552C645.24 32.8745 643.069 30.704 640.392 30.704C637.714 30.704 635.544 32.8745 635.544 35.552C635.544 38.2295 637.714 40.4 640.392 40.4Z" fill="#A9A9A9"/>
<path d="M660.592 40.4C663.269 40.4 665.44 38.2295 665.44 35.552C665.44 32.8745 663.269 30.704 660.592 30.704C657.914 30.704 655.744 32.8745 655.744 35.552C655.744 38.2295 657.914 40.4 660.592 40.4Z" fill="#A9A9A9"/>
<path d="M539.391 55.752C542.068 55.752 544.239 53.5815 544.239 50.904C544.239 48.2265 542.068 46.056 539.391 46.056C536.713 46.056 534.543 48.2265 534.543 50.904C534.543 53.5815 536.713 55.752 539.391 55.752Z" fill="#A9A9A9"/>
<path d="M559.591 55.752C562.268 55.752 564.439 53.5815 564.439 50.904C564.439 48.2265 562.268 46.056 559.591 46.056C556.913 46.056 554.743 48.2265 554.743 50.904C554.743 53.5815 556.913 55.752 559.591 55.752Z" fill="#A9A9A9"/>
<path d="M539.391 71.104C542.068 71.104 544.239 68.9335 544.239 66.256C544.239 63.5785 542.068 61.408 539.391 61.408C536.713 61.408 534.543 63.5785 534.543 66.256C534.543 68.9335 536.713 71.104 539.391 71.104Z" fill="#A9A9A9"/>
<path d="M559.591 71.104C562.268 71.104 564.439 68.9335 564.439 66.256C564.439 63.5785 562.268 61.408 559.591 61.408C556.913 61.408 554.743 63.5785 554.743 66.256C554.743 68.9335 556.913 71.104 559.591 71.104Z" fill="#A9A9A9"/>
<path d="M579.791 71.104C582.468 71.104 584.639 68.9335 584.639 66.256C584.639 63.5785 582.468 61.408 579.791 61.408C577.113 61.408 574.943 63.5785 574.943 66.256C574.943 68.9335 577.113 71.104 579.791 71.104Z" fill="#A9A9A9"/>
<path d="M579.791 55.752C582.468 55.752 584.639 53.5815 584.639 50.904C584.639 48.2265 582.468 46.056 579.791 46.056C577.113 46.056 574.943 48.2265 574.943 50.904C574.943 53.5815 577.113 55.752 579.791 55.752Z" fill="#A9A9A9"/>
<path d="M599.992 55.752C602.669 55.752 604.84 53.5815 604.84 50.904C604.84 48.2265 602.669 46.056 599.992 46.056C597.314 46.056 595.144 48.2265 595.144 50.904C595.144 53.5815 597.314 55.752 599.992 55.752Z" fill="#A9A9A9"/>
<path d="M620.192 55.752C622.869 55.752 625.04 53.5815 625.04 50.904C625.04 48.2265 622.869 46.056 620.192 46.056C617.514 46.056 615.344 48.2265 615.344 50.904C615.344 53.5815 617.514 55.752 620.192 55.752Z" fill="#A9A9A9"/>
<path d="M640.392 55.752C643.069 55.752 645.24 53.5815 645.24 50.904C645.24 48.2265 643.069 46.056 640.392 46.056C637.714 46.056 635.544 48.2265 635.544 50.904C635.544 53.5815 637.714 55.752 640.392 55.752Z" fill="#A9A9A9"/>
<path d="M660.592 55.752C663.269 55.752 665.44 53.5815 665.44 50.904C665.44 48.2265 663.269 46.056 660.592 46.056C657.914 46.056 655.744 48.2265 655.744 50.904C655.744 53.5815 657.914 55.752 660.592 55.752Z" fill="#A9A9A9"/>
<path d="M44.547 281.476C46.6524 281.476 48.359 279.769 48.359 277.664C48.359 275.559 46.6524 273.852 44.547 273.852C42.4417 273.852 40.735 275.559 40.735 277.664C40.735 279.769 42.4417 281.476 44.547 281.476Z" fill="#FF3300"/>
<path d="M44.547 265.594C46.6524 265.594 48.359 263.887 48.359 261.782C48.359 259.677 46.6524 257.97 44.547 257.97C42.4417 257.97 40.735 259.677 40.735 261.782C40.735 263.887 42.4417 265.594 44.547 265.594Z" fill="#FF3300"/>
<path d="M44.547 249.712C46.6524 249.712 48.359 248.005 48.359 245.9C48.359 243.795 46.6524 242.088 44.547 242.088C42.4417 242.088 40.735 243.795 40.735 245.9C40.735 248.005 42.4417 249.712 44.547 249.712Z" fill="#FF3300"/>
<path d="M44.547 233.83C46.6524 233.83 48.359 232.123 48.359 230.018C48.359 227.913 46.6524 226.206 44.547 226.206C42.4417 226.206 40.735 227.913 40.735 230.018C40.735 232.123 42.4417 233.83 44.547 233.83Z" fill="#FF3300"/>
<path d="M44.547 217.948C46.6524 217.948 48.359 216.241 48.359 214.136C48.359 212.031 46.6524 210.324 44.547 210.324C42.4417 210.324 40.735 212.031 40.735 214.136C40.735 216.241 42.4417 217.948 44.547 217.948Z" fill="#FF3300"/>
<path d="M44.547 202.066C46.6524 202.066 48.359 200.359 48.359 198.254C48.359 196.149 46.6524 194.442 44.547 194.442C42.4417 194.442 40.735 196.149 40.735 198.254C40.735 200.359 42.4417 202.066 44.547 202.066Z" fill="#FF3300"/>
<path d="M44.547 186.184C46.6524 186.184 48.359 184.477 48.359 182.372C48.359 180.267 46.6524 178.56 44.547 178.56C42.4417 178.56 40.735 180.267 40.735 182.372C40.735 184.477 42.4417 186.184 44.547 186.184Z" fill="#FF3300"/>
<path d="M58.942 281.476C61.0473 281.476 62.754 279.769 62.754 277.664C62.754 275.559 61.0473 273.852 58.942 273.852C56.8367 273.852 55.13 275.559 55.13 277.664C55.13 279.769 56.8367 281.476 58.942 281.476Z" fill="#FF3300"/>
<path d="M58.942 265.594C61.0473 265.594 62.754 263.887 62.754 261.782C62.754 259.677 61.0473 257.97 58.942 257.97C56.8367 257.97 55.13 259.677 55.13 261.782C55.13 263.887 56.8367 265.594 58.942 265.594Z" fill="#FF3300"/>
<path d="M58.942 249.712C61.0473 249.712 62.754 248.005 62.754 245.9C62.754 243.795 61.0473 242.088 58.942 242.088C56.8367 242.088 55.13 243.795 55.13 245.9C55.13 248.005 56.8367 249.712 58.942 249.712Z" fill="#FF3300"/>
<path d="M58.942 233.83C61.0473 233.83 62.754 232.123 62.754 230.018C62.754 227.913 61.0473 226.206 58.942 226.206C56.8367 226.206 55.13 227.913 55.13 230.018C55.13 232.123 56.8367 233.83 58.942 233.83Z" fill="#FF3300"/>
<path d="M58.942 217.948C61.0473 217.948 62.754 216.241 62.754 214.136C62.754 212.031 61.0473 210.324 58.942 210.324C56.8367 210.324 55.13 212.031 55.13 214.136C55.13 216.241 56.8367 217.948 58.942 217.948Z" fill="#FF3300"/>
<path d="M58.942 202.066C61.0473 202.066 62.754 200.359 62.754 198.254C62.754 196.149 61.0473 194.442 58.942 194.442C56.8367 194.442 55.13 196.149 55.13 198.254C55.13 200.359 56.8367 202.066 58.942 202.066Z" fill="#FF3300"/>
<path d="M58.942 186.184C61.0473 186.184 62.754 184.477 62.754 182.372C62.754 180.267 61.0473 178.56 58.942 178.56C56.8367 178.56 55.13 180.267 55.13 182.372C55.13 184.477 56.8367 186.184 58.942 186.184Z" fill="#FF3300"/>
<path d="M73.3381 281.476C75.4434 281.476 77.1501 279.769 77.1501 277.664C77.1501 275.559 75.4434 273.852 73.3381 273.852C71.2328 273.852 69.5261 275.559 69.5261 277.664C69.5261 279.769 71.2328 281.476 73.3381 281.476Z" fill="#FF3300"/>
<path d="M73.3381 265.594C75.4434 265.594 77.1501 263.887 77.1501 261.782C77.1501 259.677 75.4434 257.97 73.3381 257.97C71.2328 257.97 69.5261 259.677 69.5261 261.782C69.5261 263.887 71.2328 265.594 73.3381 265.594Z" fill="#FF3300"/>
<path d="M73.3381 249.712C75.4434 249.712 77.1501 248.005 77.1501 245.9C77.1501 243.795 75.4434 242.088 73.3381 242.088C71.2328 242.088 69.5261 243.795 69.5261 245.9C69.5261 248.005 71.2328 249.712 73.3381 249.712Z" fill="#FF3300"/>
<path d="M73.3381 233.83C75.4434 233.83 77.1501 232.123 77.1501 230.018C77.1501 227.913 75.4434 226.206 73.3381 226.206C71.2328 226.206 69.5261 227.913 69.5261 230.018C69.5261 232.123 71.2328 233.83 73.3381 233.83Z" fill="#FF3300"/>
<path d="M73.3381 217.948C75.4434 217.948 77.1501 216.241 77.1501 214.136C77.1501 212.031 75.4434 210.324 73.3381 210.324C71.2328 210.324 69.5261 212.031 69.5261 214.136C69.5261 216.241 71.2328 217.948 73.3381 217.948Z" fill="#FF3300"/>
<path d="M73.3381 202.066C75.4434 202.066 77.1501 200.359 77.1501 198.254C77.1501 196.149 75.4434 194.442 73.3381 194.442C71.2328 194.442 69.5261 196.149 69.5261 198.254C69.5261 200.359 71.2328 202.066 73.3381 202.066Z" fill="#FF3300"/>
<path d="M73.3381 186.184C75.4434 186.184 77.1501 184.477 77.1501 182.372C77.1501 180.267 75.4434 178.56 73.3381 178.56C71.2328 178.56 69.5261 180.267 69.5261 182.372C69.5261 184.477 71.2328 186.184 73.3381 186.184Z" fill="#FF3300"/>
<path d="M87.7331 281.476C89.8384 281.476 91.5451 279.769 91.5451 277.664C91.5451 275.559 89.8384 273.852 87.7331 273.852C85.6277 273.852 83.9211 275.559 83.9211 277.664C83.9211 279.769 85.6277 281.476 87.7331 281.476Z" fill="#FF3300"/>
<path d="M87.7331 265.594C89.8384 265.594 91.5451 263.887 91.5451 261.782C91.5451 259.677 89.8384 257.97 87.7331 257.97C85.6277 257.97 83.9211 259.677 83.9211 261.782C83.9211 263.887 85.6277 265.594 87.7331 265.594Z" fill="#FF3300"/>
<path d="M102.129 281.476C104.234 281.476 105.941 279.769 105.941 277.664C105.941 275.559 104.234 273.852 102.129 273.852C100.024 273.852 98.317 275.559 98.317 277.664C98.317 279.769 100.024 281.476 102.129 281.476Z" fill="#FF3300"/>
<path d="M102.129 265.594C104.234 265.594 105.941 263.887 105.941 261.782C105.941 259.677 104.234 257.97 102.129 257.97C100.024 257.97 98.317 259.677 98.317 261.782C98.317 263.887 100.024 265.594 102.129 265.594Z" fill="#FF3300"/>
<path d="M102.129 249.712C104.234 249.712 105.941 248.005 105.941 245.9C105.941 243.795 104.234 242.088 102.129 242.088C100.024 242.088 98.317 243.795 98.317 245.9C98.317 248.005 100.024 249.712 102.129 249.712Z" fill="#FF3300"/>
<path d="M87.7331 249.712C89.8384 249.712 91.5451 248.005 91.5451 245.9C91.5451 243.795 89.8384 242.088 87.7331 242.088C85.6277 242.088 83.9211 243.795 83.9211 245.9C83.9211 248.005 85.6277 249.712 87.7331 249.712Z" fill="#FF3300"/>
<path d="M87.7331 233.83C89.8384 233.83 91.5451 232.123 91.5451 230.018C91.5451 227.913 89.8384 226.206 87.7331 226.206C85.6277 226.206 83.9211 227.913 83.9211 230.018C83.9211 232.123 85.6277 233.83 87.7331 233.83Z" fill="#FF3300"/>
<path d="M87.7331 217.948C89.8384 217.948 91.5451 216.241 91.5451 214.136C91.5451 212.031 89.8384 210.324 87.7331 210.324C85.6277 210.324 83.9211 212.031 83.9211 214.136C83.9211 216.241 85.6277 217.948 87.7331 217.948Z" fill="#FF3300"/>
<path d="M87.7331 202.066C89.8384 202.066 91.5451 200.359 91.5451 198.254C91.5451 196.149 89.8384 194.442 87.7331 194.442C85.6277 194.442 83.9211 196.149 83.9211 198.254C83.9211 200.359 85.6277 202.066 87.7331 202.066Z" fill="#FF3300"/>
<path d="M87.7331 186.184C89.8384 186.184 91.5451 184.477 91.5451 182.372C91.5451 180.267 89.8384 178.56 87.7331 178.56C85.6277 178.56 83.9211 180.267 83.9211 182.372C83.9211 184.477 85.6277 186.184 87.7331 186.184Z" fill="#FF3300"/>
<path d="M471.943 250.923C467.995 250.923 464.136 249.752 460.853 247.559C457.571 245.366 455.012 242.248 453.501 238.601C451.991 234.953 451.595 230.94 452.366 227.068C453.136 223.196 455.037 219.639 457.828 216.847C460.62 214.056 464.177 212.155 468.049 211.385C471.921 210.614 475.934 211.01 479.582 212.52C483.229 214.031 486.347 216.59 488.54 219.872C490.733 223.155 491.904 227.014 491.904 230.962C491.904 236.256 489.801 241.333 486.058 245.077C482.314 248.82 477.237 250.923 471.943 250.923ZM471.943 212.133C468.219 212.133 464.579 213.237 461.482 215.306C458.386 217.375 455.972 220.316 454.547 223.756C453.122 227.197 452.749 230.983 453.476 234.635C454.202 238.288 455.996 241.643 458.629 244.276C461.262 246.909 464.617 248.703 468.27 249.429C471.922 250.156 475.708 249.783 479.149 248.358C482.589 246.933 485.53 244.519 487.599 241.423C489.668 238.326 490.772 234.686 490.772 230.962C490.773 228.489 490.286 226.04 489.34 223.755C488.394 221.47 487.007 219.394 485.259 217.645C483.51 215.896 481.434 214.509 479.149 213.563C476.865 212.616 474.416 212.129 471.943 212.129V212.133Z" fill="#A9A9A9"/>
<path d="M479.596 229.049H473.857V223.309C473.857 222.802 473.655 222.315 473.297 221.956C472.938 221.598 472.451 221.396 471.944 221.396C471.437 221.396 470.95 221.598 470.591 221.956C470.233 222.315 470.031 222.802 470.031 223.309V229.049H464.291C463.784 229.049 463.297 229.251 462.938 229.609C462.58 229.968 462.378 230.455 462.378 230.962C462.378 231.469 462.58 231.956 462.938 232.315C463.297 232.673 463.784 232.875 464.291 232.875H470.031V238.615C470.031 239.122 470.233 239.609 470.591 239.968C470.95 240.326 471.437 240.528 471.944 240.528C472.451 240.528 472.938 240.326 473.297 239.968C473.655 239.609 473.857 239.122 473.857 238.615V232.875H479.596C480.103 232.875 480.59 232.673 480.949 232.315C481.307 231.956 481.509 231.469 481.509 230.962C481.509 230.455 481.307 229.968 480.949 229.609C480.59 229.251 480.103 229.049 479.596 229.049Z" fill="#FF3300"/>
<path d="M379.843 57.121H190.978C190.05 57.121 189.16 57.4897 188.503 58.1461C187.847 58.8025 187.478 59.6927 187.478 60.621V222.121C187.478 223.049 187.847 223.939 188.503 224.596C189.16 225.252 190.05 225.621 190.978 225.621H379.843C380.771 225.621 381.662 225.252 382.318 224.596C382.974 223.939 383.343 223.049 383.343 222.121V60.621C383.343 59.6927 382.974 58.8025 382.318 58.1461C381.662 57.4897 380.771 57.121 379.843 57.121ZM381.943 222.121C381.943 222.397 381.889 222.67 381.783 222.925C381.678 223.179 381.523 223.411 381.328 223.606C381.133 223.801 380.901 223.956 380.647 224.061C380.392 224.167 380.119 224.221 379.843 224.221H190.978C190.702 224.221 190.429 224.167 190.174 224.061C189.92 223.956 189.688 223.801 189.493 223.606C189.298 223.411 189.143 223.179 189.038 222.925C188.932 222.67 188.878 222.397 188.878 222.121V60.621C188.878 60.064 189.099 59.5299 189.493 59.136C189.887 58.7422 190.421 58.521 190.978 58.521H379.843C380.4 58.521 380.934 58.7422 381.328 59.136C381.722 59.5299 381.943 60.064 381.943 60.621V222.121Z" fill="#A9A9A9"/>
<path d="M234.573 196.902C234.573 197.151 234.566 197.402 234.553 197.642C234.365 201.288 232.783 204.723 230.136 207.237C227.489 209.751 223.977 211.152 220.326 211.152C216.675 211.152 213.164 209.751 210.516 207.237C207.869 204.723 206.288 201.288 206.099 197.642C206.086 197.4 206.079 197.151 206.079 196.902C206.063 195.021 206.42 193.156 207.129 191.413C207.838 189.671 208.885 188.086 210.209 186.751C211.534 185.415 213.11 184.355 214.846 183.632C216.582 182.908 218.445 182.536 220.326 182.536C222.207 182.536 224.069 182.908 225.805 183.632C227.541 184.355 229.117 185.415 230.442 186.751C231.766 188.086 232.813 189.671 233.522 191.413C234.231 193.156 234.588 195.021 234.572 196.902H234.573Z" fill="#FF3300"/>
<path d="M365.168 187.402H253.225C252.595 187.402 251.991 187.652 251.546 188.098C251.1 188.543 250.85 189.147 250.85 189.777C250.85 190.407 251.1 191.011 251.546 191.456C251.991 191.902 252.595 192.152 253.225 192.152H365.168C365.798 192.152 366.402 191.902 366.847 191.456C367.293 191.011 367.543 190.407 367.543 189.777C367.543 189.147 367.293 188.543 366.847 188.098C366.402 187.652 365.798 187.402 365.168 187.402Z" fill="#FF3300"/>
<path d="M301.393 201.651H253.225C252.604 201.664 252.014 201.919 251.579 202.363C251.145 202.806 250.902 203.402 250.902 204.022C250.902 204.643 251.145 205.239 251.579 205.682C252.014 206.126 252.604 206.381 253.225 206.394H301.393C301.709 206.4 302.022 206.344 302.316 206.228C302.609 206.111 302.876 205.938 303.102 205.717C303.327 205.496 303.506 205.232 303.628 204.941C303.751 204.651 303.814 204.338 303.814 204.022C303.814 203.707 303.751 203.394 303.628 203.104C303.506 202.813 303.327 202.549 303.102 202.328C302.876 202.107 302.609 201.934 302.316 201.817C302.022 201.701 301.709 201.645 301.393 201.651Z" fill="#FF3300"/>
<path d="M429.626 78.176H230.65V171.245H429.626V78.176Z" fill="white"/>
<path d="M424.714 170.628H235.849C234.566 170.626 233.336 170.116 232.429 169.209C231.522 168.302 231.012 167.072 231.011 165.789V82.907C231.012 81.6243 231.522 80.3945 232.43 79.4875C233.337 78.5804 234.566 78.0703 235.849 78.069H424.714C425.997 78.0706 427.226 78.5808 428.133 79.4877C429.04 80.3947 429.55 81.6244 429.552 82.907V165.789C429.551 167.072 429.041 168.302 428.134 169.209C427.227 170.116 425.997 170.626 424.714 170.628ZM235.849 79.766C235.017 79.767 234.219 80.0982 233.63 80.6868C233.041 81.2755 232.71 82.0735 232.709 82.906V165.789C232.71 166.622 233.041 167.42 233.63 168.009C234.218 168.598 235.016 168.929 235.849 168.93H424.714C425.547 168.929 426.345 168.598 426.934 168.009C427.522 167.42 427.853 166.622 427.854 165.789V82.907C427.853 82.0745 427.522 81.2765 426.933 80.6878C426.345 80.0992 425.546 79.768 424.714 79.767L235.849 79.766Z" fill="#A9A9A9"/>
<path d="M274.309 108.3C273.679 108.3 273.075 108.55 272.63 108.995C272.185 109.441 271.935 110.045 271.935 110.674C271.935 111.304 272.185 111.908 272.63 112.354C273.075 112.799 273.679 113.049 274.309 113.049H386.249C386.879 113.049 387.483 112.799 387.928 112.354C388.373 111.908 388.624 111.304 388.624 110.674C388.624 110.045 388.373 109.441 387.928 108.995C387.483 108.55 386.879 108.3 386.249 108.3H274.309Z" fill="#FF3300"/>
<path d="M274.309 122.058C273.679 122.058 273.075 122.308 272.63 122.753C272.185 123.199 271.935 123.803 271.935 124.432C271.935 125.062 272.185 125.666 272.63 126.111C273.075 126.557 273.679 126.807 274.309 126.807H386.249C386.879 126.807 387.483 126.557 387.928 126.111C388.373 125.666 388.624 125.062 388.624 124.432C388.624 123.803 388.373 123.199 387.928 122.753C387.483 122.308 386.879 122.058 386.249 122.058H274.309Z" fill="#FF3300"/>
<path d="M274.309 135.649C273.679 135.649 273.075 135.899 272.63 136.344C272.185 136.79 271.935 137.394 271.935 138.023C271.935 138.653 272.185 139.257 272.63 139.702C273.075 140.148 273.679 140.398 274.309 140.398H322.477C323.107 140.398 323.711 140.148 324.156 139.702C324.601 139.257 324.852 138.653 324.852 138.023C324.852 137.394 324.601 136.79 324.156 136.344C323.711 135.899 323.107 135.649 322.477 135.649H274.309Z" fill="#FF3300"/>
<path d="M455.852 205.743L436.883 178.973L443.024 180.253C443.245 180.299 443.474 180.255 443.663 180.132C443.851 180.008 443.983 179.815 444.028 179.594C444.074 179.374 444.031 179.144 443.907 178.956C443.784 178.767 443.59 178.636 443.37 178.59L434.219 176.69L432.984 185.954C432.954 186.177 433.015 186.403 433.151 186.582C433.288 186.761 433.491 186.878 433.714 186.908C433.937 186.938 434.163 186.877 434.342 186.741C434.521 186.604 434.638 186.401 434.668 186.178L435.496 179.957L454.467 206.731C454.6 206.907 454.796 207.025 455.014 207.059C455.233 207.092 455.455 207.04 455.635 206.912C455.816 206.785 455.939 206.592 455.979 206.375C456.02 206.158 455.974 205.934 455.852 205.75V205.743Z" fill="#A9A9A9"/>
<path d="M144.057 390.324H2.61899C1.92498 390.322 1.2599 390.046 0.769531 389.555C0.279165 389.064 0.00351828 388.398 0.00299072 387.704V352.62C0.00378473 351.926 0.27998 351.26 0.770966 350.769C1.26195 350.278 1.92762 350.002 2.62198 350.001H144.057C144.751 350.002 145.417 350.278 145.908 350.769C146.399 351.26 146.675 351.926 146.676 352.62V387.705C146.675 388.399 146.399 389.065 145.908 389.556C145.417 390.047 144.751 390.323 144.057 390.324ZM2.61899 351.046C2.20215 351.046 1.80247 351.212 1.50772 351.507C1.21297 351.801 1.04726 352.201 1.047 352.618V387.703C1.04753 388.12 1.21334 388.519 1.50806 388.814C1.80278 389.108 2.20232 389.274 2.61899 389.274H144.057C144.474 389.274 144.873 389.108 145.168 388.814C145.463 388.519 145.628 388.12 145.629 387.703V352.62C145.629 352.203 145.463 351.803 145.168 351.509C144.874 351.214 144.474 351.048 144.057 351.048L2.61899 351.046Z" fill="#A9A9A9"/>
<path d="M24.595 379.484C30.4873 379.484 35.264 374.707 35.264 368.815C35.264 362.923 30.4873 358.146 24.595 358.146C18.7026 358.146 13.926 362.923 13.926 368.815C13.926 374.707 18.7026 379.484 24.595 379.484Z" fill="#FF3300"/>
<path d="M49.236 361.703C48.7644 361.703 48.3122 361.89 47.9788 362.224C47.6453 362.557 47.458 363.009 47.458 363.481C47.458 363.953 47.6453 364.405 47.9788 364.738C48.3122 365.072 48.7644 365.259 49.236 365.259H133.066C133.538 365.259 133.99 365.072 134.323 364.738C134.657 364.405 134.844 363.953 134.844 363.481C134.844 363.009 134.657 362.557 134.323 362.224C133.99 361.89 133.538 361.703 133.066 361.703H49.236Z" fill="#FF3300"/>
<path d="M49.236 372.372C48.7644 372.372 48.3122 372.559 47.9788 372.893C47.6453 373.226 47.458 373.678 47.458 374.15C47.458 374.622 47.6453 375.074 47.9788 375.407C48.3122 375.741 48.7644 375.928 49.236 375.928H85.308C85.7795 375.928 86.2318 375.741 86.5652 375.407C86.8987 375.074 87.086 374.622 87.086 374.15C87.086 373.678 86.8987 373.226 86.5652 372.893C86.2318 372.559 85.7795 372.372 85.308 372.372H49.236Z" fill="#FF3300"/>
<path d="M710.28 163.771H796.872C797.829 163.772 798.746 164.153 799.422 164.829C800.098 165.505 800.479 166.422 800.48 167.379V257.561C800.479 258.518 800.098 259.435 799.422 260.111C798.746 260.787 797.829 261.168 796.872 261.169H710.28C709.323 261.168 708.406 260.787 707.73 260.111C707.054 259.435 706.673 258.518 706.672 257.561V167.379C706.673 166.422 707.054 165.505 707.73 164.829C708.406 164.153 709.323 163.772 710.28 163.771ZM796.872 259.726C797.446 259.725 797.996 259.497 798.402 259.091C798.808 258.685 799.036 258.135 799.037 257.561V167.379C799.036 166.805 798.808 166.255 798.402 165.849C797.996 165.443 797.446 165.215 796.872 165.214H710.28C709.706 165.215 709.156 165.443 708.75 165.849C708.344 166.255 708.116 166.805 708.115 167.379V257.561C708.116 258.135 708.344 258.685 708.75 259.091C709.156 259.497 709.706 259.725 710.28 259.726H796.872Z" fill="#A9A9A9"/>
<path d="M778.421 242.571C779.071 242.571 779.694 242.313 780.153 241.853C780.613 241.394 780.871 240.771 780.871 240.121C780.871 239.471 780.613 238.848 780.153 238.389C779.694 237.929 779.071 237.671 778.421 237.671H728.731C728.081 237.671 727.458 237.929 726.999 238.389C726.539 238.848 726.281 239.471 726.281 240.121C726.281 240.771 726.539 241.394 726.999 241.853C727.458 242.313 728.081 242.571 728.731 242.571H778.421Z" fill="#FF3300"/>
<path d="M778.421 228.14C779.071 228.14 779.694 227.882 780.153 227.422C780.613 226.963 780.871 226.34 780.871 225.69C780.871 225.04 780.613 224.417 780.153 223.958C779.694 223.498 779.071 223.24 778.421 223.24H728.731C728.081 223.24 727.458 223.498 726.999 223.958C726.539 224.417 726.281 225.04 726.281 225.69C726.281 226.34 726.539 226.963 726.999 227.422C727.458 227.882 728.081 228.14 728.731 228.14H778.421Z" fill="#FF3300"/>
<path d="M753.576 182.368C756.626 182.368 759.607 183.272 762.142 184.967C764.678 186.661 766.654 189.069 767.821 191.886C768.988 194.704 769.294 197.804 768.699 200.795C768.104 203.786 766.635 206.533 764.479 208.69C762.322 210.846 759.575 212.315 756.584 212.91C753.593 213.505 750.493 213.199 747.675 212.032C744.858 210.865 742.45 208.889 740.756 206.353C739.061 203.818 738.157 200.837 738.157 197.787C738.157 193.698 739.781 189.776 742.673 186.884C745.565 183.993 749.487 182.368 753.576 182.368Z" fill="#FF3300"/>
</g>
<defs>
<clipPath id="clip0_8_3">
<rect width="801" height="391" fill="white"/>
</clipPath>
</defs>
</svg>
